<svg fill="none" height="394" width="533" xmlns="http://www.w3.org/2000/svg"><path d="m2.421 119.17c7.39 21.22 26.1 37.64 46.9 42.33 6.99 1.66 12.94 1.43 18.04-.35s9.9-5.3 14.34-10.95c13.2-16.78 17.84-41.13 10.44-62.35-6.3-18.08-20.85-25.97-33.96-21.39-6.77 2.36-13.58 6.68-17.79 17.27-9.88-5.67-17.9-4.81-24.66-2.45-13.1 4.57-19.6 19.81-13.31 37.89z" fill="#fff238"/><path d="m56.802 144.99-2.44-6.99c-4.63.09-9.2-2.27-11.27-8.23-.15-.44-.36-1.05-.49-1.63l2.11-.45c.09.45.27.96.42 1.37 2.44 7 8.4 7.72 13.16 6.06 6.35-2.22 8.71-6.73 6.63-12.69-.53-1.52-1.66-3.53-4.06-4.48-2.7-.96-5.8-1.14-8.81-1.3-5.48-.31-11.14-.63-13.12-6.32-.97-2.78-.75-5.43.62-7.68a9.45 9.45 0 0 1 1.76-2.1l-2.6-7.46 2.04-.71 2.38 6.84c.75-.44 1.57-.82 2.46-1.13.77-.27 1.5-.48 2.22-.65l-2.34-6.72 2.04-.71 2.47 7.08c1.53-.13 2.93.02 4.23.44 3.2 1.05 5.58 3.79 7.1 8.15l-2.04.71c-1.29-3.69-3.21-5.97-5.74-6.81-1.97-.65-4.33-.47-7.22.54-2.21.77-3.95 2.06-4.92 3.64-1.04 1.7-1.18 3.67-.42 5.84 1.43 4.12 5.19 4.53 11.21 4.88 3.15.18 6.42.36 9.44 1.44 2.53 1 4.36 3 5.34 5.79 1.93 5.54.52 10.28-3.76 13.33l2.4 6.88-2.04.71-2.25-6.45c-.71.36-1.48.69-2.31.98-.79.27-1.6.49-2.43.63l2.26 6.49-2.04.71z" fill="#000"/><path d="m64.35 244.029 43.241-19.72c2.77-1.41 4.44-4.46 4.44-8.22v-82.65h-102.39v82.65c0 3.76 1.66 6.81 4.44 8.22l43.24 19.72c2.22.94 4.81.94 7.02 0h.01z" fill="#ff4d9f"/><path d="m60.832 237.95c-.16 0-.31-.03-.45-.1l-2.94-1.35a1.079 1.079 0 0 1 .9-1.96l2.49 1.15 2.49-1.15a1.079 1.079 0 0 1 .9 1.96l-2.94 1.35c-.14.07-.3.1-.45.1zm-8.51-3.92c-.15 0-.3-.03-.45-.1l-5.58-2.56a1.079 1.079 0 0 1 .9-1.96l5.58 2.57a1.079 1.079 0 0 1 -.45 2.06zm-11.15-5.13c-.15 0-.3-.03-.45-.1l-5.58-2.57a1.079 1.079 0 0 1 .9-1.96l5.58 2.57a1.079 1.079 0 0 1 -.45 2.06zm-11.15-5.13c-.15 0-.3-.03-.45-.1l-5.58-2.57a1.079 1.079 0 0 1 .9-1.96l5.58 2.57a1.079 1.079 0 0 1 -.45 2.06zm-11.15-5.13c-.15 0-.3-.03-.45-.1l-2.94-1.35a1.09 1.09 0 0 1 -.63-.98v-3.24c0-.6.48-1.08 1.08-1.08s1.08.48 1.08 1.08v2.55l2.31 1.06a1.079 1.079 0 0 1 -.45 2.06zm-2.94-10.811c-.6 0-1.08-.48-1.08-1.08v-6.22c0-.6.48-1.08 1.08-1.08s1.08.48 1.08 1.08v6.22c0 .6-.48 1.08-1.08 1.08zm0-12.44c-.6 0-1.08-.48-1.08-1.08v-6.22c0-.6.48-1.08 1.08-1.08s1.08.48 1.08 1.08v6.22c0 .6-.48 1.08-1.08 1.08zm0-12.44c-.6 0-1.08-.48-1.08-1.08v-6.22c0-.6.48-1.08 1.08-1.08s1.08.48 1.08 1.08v6.22c0 .6-.48 1.08-1.08 1.08zm0-12.44c-.6 0-1.08-.48-1.08-1.08v-6.22c0-.6.48-1.08 1.08-1.08s1.08.48 1.08 1.08v6.22c0 .6-.48 1.08-1.08 1.08zm0-12.44c-.6 0-1.08-.48-1.08-1.08v-6.22c0-.6.48-1.08 1.08-1.08s1.08.48 1.08 1.08v6.22c0 .6-.48 1.08-1.08 1.08zm0-12.439c-.6 0-1.08-.481-1.08-1.081v-3.24c0-.6.48-1.08 1.08-1.08h3.24c.6 0 1.08.48 1.08 1.08s-.48 1.08-1.08 1.08h-2.16v2.16c0 .6-.48 1.081-1.08 1.081zm80.16-3.241h-6.41c-.6 0-1.08-.48-1.08-1.08s.48-1.08 1.08-1.08h6.41c.6 0 1.08.48 1.08 1.08s-.48 1.08-1.08 1.08zm-12.82 0h-6.41c-.6 0-1.08-.48-1.08-1.08s.48-1.08 1.08-1.08h6.41c.6 0 1.08.48 1.08 1.08s-.48 1.08-1.08 1.08zm-12.82 0h-6.41c-.6 0-1.08-.48-1.08-1.08s.48-1.08 1.08-1.08h6.41c.6 0 1.08.48 1.08 1.08s-.48 1.08-1.08 1.08zm-12.82 0h-6.41c-.6 0-1.08-.48-1.08-1.08s.48-1.08 1.08-1.08h6.41c.6 0 1.08.48 1.08 1.08s-.48 1.08-1.08 1.08zm-12.82 0h-6.41c-.6 0-1.08-.48-1.08-1.08s.48-1.08 1.08-1.08h6.41c.6 0 1.08.48 1.08 1.08s-.48 1.08-1.08 1.08zm-12.82 0h-6.41c-.6 0-1.08-.48-1.08-1.08s.48-1.08 1.08-1.08h6.41c.6 0 1.08.48 1.08 1.08s-.48 1.08-1.08 1.08zm73.75 3.241c-.6 0-1.08-.481-1.08-1.081v-2.16h-2.16c-.6 0-1.08-.48-1.08-1.08s.48-1.08 1.08-1.08h3.24c.6 0 1.08.48 1.08 1.08v3.24c0 .6-.48 1.081-1.08 1.081zm0 62.199c-.6 0-1.08-.48-1.08-1.08v-6.22c0-.6.48-1.08 1.08-1.08s1.08.48 1.08 1.08v6.22c0 .6-.48 1.08-1.08 1.08zm0-12.44c-.6 0-1.08-.48-1.08-1.08v-6.22c0-.6.48-1.08 1.08-1.08s1.08.48 1.08 1.08v6.22c0 .6-.48 1.08-1.08 1.08zm0-12.44c-.6 0-1.08-.48-1.08-1.08v-6.22c0-.6.48-1.08 1.08-1.08s1.08.48 1.08 1.08v6.22c0 .6-.48 1.08-1.08 1.08zm0-12.44c-.6 0-1.08-.48-1.08-1.08v-6.22c0-.6.48-1.08 1.08-1.08s1.08.48 1.08 1.08v6.22c0 .6-.48 1.08-1.08 1.08zm0-12.44c-.6 0-1.08-.48-1.08-1.08v-6.22c0-.6.48-1.08 1.08-1.08s1.08.48 1.08 1.08v6.22c0 .6-.48 1.08-1.08 1.08zm-2.94 60.571a1.079 1.079 0 0 1 -.45-2.06l2.31-1.06v-2.55c0-.6.48-1.08 1.08-1.08s1.08.48 1.08 1.08v3.24c0 .42-.25.81-.63.98l-2.94 1.35c-.15.07-.3.1-.45.1zm-33.451 15.39a1.079 1.079 0 0 1 -.45-2.06l5.58-2.57a1.079 1.079 0 0 1 .9 1.96l-5.58 2.56c-.15.07-.3.1-.45.1zm11.15-5.13a1.079 1.079 0 0 1 -.45-2.06l5.58-2.57a1.079 1.079 0 0 1 .9 1.96l-5.58 2.57c-.15.07-.3.1-.45.1zm11.15-5.13a1.079 1.079 0 0 1 -.45-2.06l5.58-2.57a1.079 1.079 0 0 1 .9 1.96l-5.58 2.57c-.15.07-.3.1-.45.1z" fill="#000"/><path d="m240.011 92.02c13.62 25.309 40.56 42.249 67.78 43.959 9.16.68 16.63-.82 22.7-4.1s11.43-8.69 15.9-16.73c13.28-23.87 14.21-55.54.59-80.85-11.6-21.56-31.58-28.57-47.2-20.13-8.07 4.35-15.8 11.18-18.98 25.41-13.62-5.16-23.58-2.45-31.64 1.9-15.62 8.43-20.76 28.99-9.15 50.55v-.01z" fill="#ff6540"/><path d="m471.452 34.4c-13.93-6.94-31.46-6.92-42.78 14.97l-19.21 37.13c-11.32 21.89-1.23 36.24 12.48 43.61l37.74 19.57-5.68-20.76c4.15-3.23 7.89-7.79 10.93-13.67l19.2-37.13c9.74-18.84 4.16-34.99-12.69-43.73z" fill="#4dc7ff"/><path d="m382.262 319.2 93.1-35.56c5.97-2.54 9.55-8.04 9.55-14.82v-149.03h-220.42v149.03c0 6.77 3.58 12.28 9.55 14.82l93.1 35.56c4.78 1.69 10.34 1.69 15.12 0z" fill="#a599ff"/><path d="m281.032 271.28c-.13 0-.26-.02-.39-.07l-3.02-1.16c-.42-.16-.69-.56-.69-1.01v-3.24c0-.6.48-1.08 1.08-1.08s1.08.48 1.08 1.08v2.5l2.33.9c.56.21.84.84.62 1.4-.16.43-.57.69-1.01.69zm-3.02-11.18c-.6 0-1.08-.48-1.08-1.08v-6.77c0-.6.48-1.08 1.08-1.08s1.08.48 1.08 1.08v6.77c0 .6-.48 1.08-1.08 1.08zm0-13.53c-.6 0-1.08-.48-1.08-1.08v-6.77c0-.6.48-1.08 1.08-1.08s1.08.48 1.08 1.08v6.77c0 .6-.48 1.08-1.08 1.08zm0-13.53c-.6 0-1.08-.48-1.08-1.08v-6.77c0-.6.48-1.08 1.08-1.08s1.08.48 1.08 1.08v6.77c0 .6-.48 1.08-1.08 1.08zm0-13.53c-.6 0-1.08-.48-1.08-1.08v-6.76c0-.6.48-1.08 1.08-1.08s1.08.48 1.08 1.08v6.76c0 .6-.48 1.08-1.08 1.08zm0-13.53c-.6 0-1.08-.48-1.08-1.08v-6.77c0-.6.48-1.08 1.08-1.08s1.08.48 1.08 1.08v6.77c0 .6-.48 1.08-1.08 1.08zm0-13.53c-.6 0-1.08-.48-1.08-1.08v-6.77c0-.6.48-1.08 1.08-1.08s1.08.48 1.08 1.08v6.77c0 .6-.48 1.08-1.08 1.08zm0-13.53c-.6 0-1.08-.48-1.08-1.08v-6.77c0-.6.48-1.08 1.08-1.08s1.08.48 1.08 1.08v6.77c0 .6-.48 1.08-1.08 1.08zm0-13.53c-.6 0-1.08-.48-1.08-1.08v-6.77c0-.6.48-1.08 1.08-1.08s1.08.48 1.08 1.08v6.77c0 .6-.48 1.08-1.08 1.08zm0-13.53c-.6 0-1.08-.48-1.08-1.08v-6.77c0-.6.48-1.08 1.08-1.08s1.08.48 1.08 1.08v6.77c0 .6-.48 1.08-1.08 1.08zm0-13.561c-.6 0-1.08-.48-1.08-1.08v-3.24c0-.6.48-1.08 1.08-1.08h3.24c.6 0 1.08.48 1.08 1.08s-.48 1.08-1.08 1.08h-2.16v2.16c0 .6-.48 1.08-1.08 1.08zm183.69-3.249h-6.45c-.6 0-1.08-.48-1.08-1.08s.48-1.08 1.08-1.08h6.45c.6 0 1.08.48 1.08 1.08s-.48 1.08-1.08 1.08zm-12.89 0h-6.44c-.6 0-1.08-.48-1.08-1.08s.48-1.08 1.08-1.08h6.44c.6 0 1.08.48 1.08 1.08s-.48 1.08-1.08 1.08zm-12.89 0h-6.45c-.6 0-1.08-.48-1.08-1.08s.48-1.08 1.08-1.08h6.45c.6 0 1.08.48 1.08 1.08s-.48 1.08-1.08 1.08zm-12.89 0h-6.45c-.6 0-1.08-.48-1.08-1.08s.48-1.08 1.08-1.08h6.45c.6 0 1.08.48 1.08 1.08s-.48 1.08-1.08 1.08zm-12.89 0h-6.45c-.6 0-1.08-.48-1.08-1.08s.48-1.08 1.08-1.08h6.45c.6 0 1.08.48 1.08 1.08s-.48 1.08-1.08 1.08zm-12.89 0h-6.44c-.6 0-1.08-.48-1.08-1.08s.48-1.08 1.08-1.08h6.44c.6 0 1.08.48 1.08 1.08s-.48 1.08-1.08 1.08zm-12.89 0h-6.44c-.6 0-1.08-.48-1.08-1.08s.48-1.08 1.08-1.08h6.44c.6 0 1.08.48 1.08 1.08s-.48 1.08-1.08 1.08zm-12.89 0h-6.45c-.6 0-1.08-.48-1.08-1.08s.48-1.08 1.08-1.08h6.45c.6 0 1.08.48 1.08 1.08s-.48 1.08-1.08 1.08zm-12.89 0h-6.44c-.6 0-1.08-.48-1.08-1.08s.48-1.08 1.08-1.08h6.44c.6 0 1.08.48 1.08 1.08s-.48 1.08-1.08 1.08zm-12.89 0h-6.45c-.6 0-1.08-.48-1.08-1.08s.48-1.08 1.08-1.08h6.45c.6 0 1.08.48 1.08 1.08s-.48 1.08-1.08 1.08zm-12.89 0h-6.44c-.6 0-1.08-.48-1.08-1.08s.48-1.08 1.08-1.08h6.44c.6 0 1.08.48 1.08 1.08s-.48 1.08-1.08 1.08zm-12.89 0h-6.44c-.6 0-1.08-.48-1.08-1.08s.48-1.08 1.08-1.08h6.44c.6 0 1.08.48 1.08 1.08s-.48 1.08-1.08 1.08zm-12.89 0h-6.45c-.6 0-1.08-.48-1.08-1.08s.48-1.08 1.08-1.08h6.45c.6 0 1.08.48 1.08 1.08s-.48 1.08-1.08 1.08zm-12.89 0h-6.45c-.6 0-1.08-.48-1.08-1.08s.48-1.08 1.08-1.08h6.45c.6 0 1.08.48 1.08 1.08s-.48 1.08-1.08 1.08zm177.249 3.249c-.6 0-1.08-.48-1.08-1.08v-2.16h-2.16c-.6 0-1.08-.48-1.08-1.08s.48-1.08 1.08-1.08h3.24c.6 0 1.08.48 1.08 1.08v3.24c0 .6-.48 1.08-1.08 1.08zm0 121.801c-.6 0-1.08-.48-1.08-1.08v-6.77c0-.6.48-1.08 1.08-1.08s1.08.48 1.08 1.08v6.77c0 .6-.48 1.08-1.08 1.08zm0-13.53c-.6 0-1.08-.48-1.08-1.08v-6.77c0-.6.48-1.08 1.08-1.08s1.08.48 1.08 1.08v6.77c0 .6-.48 1.08-1.08 1.08zm0-13.53c-.6 0-1.08-.48-1.08-1.08v-6.77c0-.6.48-1.08 1.08-1.08s1.08.48 1.08 1.08v6.77c0 .6-.48 1.08-1.08 1.08zm0-13.53c-.6 0-1.08-.48-1.08-1.08v-6.77c0-.6.48-1.08 1.08-1.08s1.08.48 1.08 1.08v6.77c0 .6-.48 1.08-1.08 1.08zm0-13.53c-.6 0-1.08-.48-1.08-1.08v-6.77c0-.6.48-1.08 1.08-1.08s1.08.48 1.08 1.08v6.77c0 .6-.48 1.08-1.08 1.08zm0-13.53c-.6 0-1.08-.48-1.08-1.08v-6.76c0-.6.48-1.08 1.08-1.08s1.08.48 1.08 1.08v6.76c0 .6-.48 1.08-1.08 1.08zm0-13.53c-.6 0-1.08-.48-1.08-1.08v-6.77c0-.6.48-1.08 1.08-1.08s1.08.48 1.08 1.08v6.77c0 .6-.48 1.08-1.08 1.08zm0-13.53c-.6 0-1.08-.48-1.08-1.08v-6.77c0-.6.48-1.08 1.08-1.08s1.08.48 1.08 1.08v6.77c0 .6-.48 1.08-1.08 1.08zm0-13.53c-.6 0-1.08-.48-1.08-1.08v-6.77c0-.6.48-1.08 1.08-1.08s1.08.48 1.08 1.08v6.77c0 .6-.48 1.08-1.08 1.08zm-3.019 119.419c-.43 0-.84-.26-1.01-.69-.21-.56.06-1.18.62-1.4l2.33-.9v-2.5c0-.6.48-1.08 1.08-1.08s1.08.48 1.08 1.08v3.24c0 .45-.28.85-.69 1.01l-3.02 1.16c-.13.05-.26.07-.39.07zm-93.661 36.091c-.13 0-.26-.02-.39-.07l-3.02-1.16c-.56-.22-.84-.84-.62-1.4.21-.56.84-.83 1.39-.62l2.63 1.01 2.63-1.01c.55-.21 1.18.06 1.39.62s-.06 1.18-.62 1.4l-3.02 1.16c-.12.05-.26.07-.39.07zm9.06-3.49c-.43 0-.84-.26-1.01-.69-.22-.56.06-1.18.62-1.4l6.04-2.33c.56-.21 1.18.06 1.39.62s-.06 1.18-.62 1.4l-6.04 2.33c-.13.05-.26.07-.39.07zm-18.13 0c-.13 0-.26-.02-.39-.07l-6.04-2.33c-.56-.22-.83-.84-.62-1.4s.84-.83 1.39-.62l6.04 2.33c.56.22.83.84.62 1.4-.16.43-.57.69-1.01.69zm30.21-4.66c-.43 0-.84-.26-1.01-.69-.22-.56.06-1.18.62-1.4l6.04-2.33c.55-.21 1.18.06 1.39.62.22.56-.06 1.18-.62 1.4l-6.04 2.33c-.13.05-.26.07-.39.07zm-42.3 0c-.13 0-.26-.02-.39-.07l-6.04-2.33c-.56-.22-.83-.84-.62-1.4s.84-.83 1.39-.62l6.04 2.33c.56.21.83.84.62 1.4-.16.43-.57.69-1.01.69zm54.39-4.66c-.43 0-.84-.26-1.01-.69-.21-.56.06-1.18.62-1.4l6.04-2.33c.55-.21 1.18.06 1.39.62.22.56-.06 1.18-.62 1.4l-6.04 2.33c-.13.05-.26.07-.39.07zm-66.47 0c-.13 0-.26-.02-.39-.07l-6.04-2.33c-.56-.22-.84-.84-.62-1.4s.84-.83 1.4-.62l6.04 2.33c.56.22.83.84.62 1.4-.16.43-.57.69-1.01.69zm78.55-4.66c-.43 0-.84-.26-1.01-.69-.21-.56.06-1.18.62-1.4l6.04-2.33c.56-.21 1.18.06 1.39.62.22.56-.06 1.18-.62 1.4l-6.04 2.33c-.13.05-.26.07-.39.07zm-90.64 0c-.13 0-.26-.02-.39-.07l-6.04-2.33c-.56-.22-.84-.84-.62-1.4.21-.56.84-.83 1.4-.62l6.04 2.33c.56.22.83.84.62 1.4-.16.43-.57.69-1.01.69zm-12.09-4.66c-.13 0-.26-.02-.39-.07l-6.04-2.33c-.56-.22-.83-.84-.62-1.4.22-.56.84-.83 1.4-.62l6.04 2.33c.56.21.83.84.62 1.4-.16.43-.57.69-1.01.69zm114.81 0c-.43 0-.84-.26-1.01-.69-.22-.56.06-1.18.62-1.4l6.04-2.33c.55-.21 1.18.06 1.4.62.21.56-.06 1.18-.62 1.4l-6.04 2.33c-.13.05-.26.07-.39.07zm12.08-4.66c-.43 0-.84-.26-1.01-.69-.21-.56.06-1.18.62-1.4l6.04-2.33c.56-.21 1.18.06 1.39.62.22.56-.06 1.18-.62 1.4l-6.04 2.33c-.13.05-.26.07-.39.07zm-138.98 0c-.13 0-.26-.02-.39-.07l-6.04-2.33c-.56-.22-.83-.84-.62-1.4s.84-.83 1.39-.62l6.04 2.33c.56.22.83.84.62 1.4-.16.43-.57.69-1.01.69zm151.07-4.66c-.43 0-.84-.26-1.01-.69-.21-.56.06-1.18.62-1.4l6.04-2.33c.56-.21 1.18.06 1.39.62s-.06 1.18-.62 1.4l-6.04 2.33c-.13.05-.26.07-.39.07zm-163.15 0c-.13 0-.26-.02-.39-.07l-6.04-2.33c-.56-.21-.83-.84-.62-1.4s.84-.83 1.39-.62l6.04 2.33c.56.21.83.84.62 1.4-.16.43-.57.69-1.01.69z" fill="#000"/><path d="m390.462 91.37-34.67-23.32c-20.43-13.75-35.82-5.33-44.7 7.45-10.59 15.78-7.73 32.619 9.86 44.449l34.67 23.32c5.49 3.69 10.95 5.89 16.15 6.73l4.98 20.94 23.71-35.32c8.47-13.06 10.44-30.5-9.99-44.25h-.01z" fill="#4dc7ff"/><path d="m429.532 122.87c-.28-1.08-.64-2.1-1.07-3.04-1.39-3-3.52-5.23-6.32-6.62-5.07-2.3-10.93-3.14-16.6-3.95-10.38-1.48-20.17-2.88-22.83-13.25-1.3-5.07-.53-9.74 2.23-13.51 2.12-2.89 5.28-5.11 9.23-6.52-6.43-17.49-14.37-29.88-24.94-38.92-10.34-8.93-23.92-12.63-35.45-9.68-2.83.73-5.39 1.78-7.84 3.23l-1.1-1.86c2.62-1.55 5.37-2.69 8.4-3.46 12.2-3.13 26.53.76 37.39 10.13 10.89 9.31 19.04 22.01 25.6 39.92l.24-.06.24-.06c-2.84-18.86-1.79-33.93 3.29-47.33 5.02-13.44 15.72-23.75 27.92-26.87a31.59 31.59 0 0 1 9.03-1.01l-.07 2.16c-2.83-.09-5.6.21-8.42.94-11.53 2.96-21.66 12.74-26.44 25.54-4.93 13.02-5.95 27.69-3.2 46.1 5.22-1.02 9.57-.75 13.27.82 5.54 2.36 9.4 7.66 11.48 15.78l-2.09.54c-1.9-7.43-5.34-12.24-10.23-14.32-3.79-1.61-8.45-1.67-14.24-.19-4.54 1.17-8.12 3.38-10.33 6.4-2.36 3.22-3.01 7.26-1.88 11.69 2.3 8.97 10.98 10.21 21.04 11.64 5.82.83 11.84 1.69 17.22 4.14 3.29 1.63 5.75 4.21 7.36 7.66.49 1.06.9 2.21 1.2 3.42z" fill="#fff"/><path d="m475.371 119.79h-65.84v11.49h65.84zm-2.91 164.939 60.54-22.62-55.12-38.9z" fill="#a599ff"/><path d="m106.221 349.43c36.7 35.66 77.71 45.38 118.72 44.3l-33.46-71.32z" fill="#fff238"/><path d="m173.532 258.38-3.17-13.44c-2.77-.17-5.4-.81-7.74-1.92-5.35-2.54-9.01-7.44-10.6-14.17-.2-.84-.44-1.88-.55-2.87l2.15-.23c.09.86.32 1.82.5 2.6 1.45 6.16 4.62 10.44 9.43 12.72 3.96 1.88 8.87 2.27 13.83 1.1 6.28-1.49 10.72-4.3 13.2-8.37 2.27-3.74 2.8-8.56 1.53-13.94-1-4.25-3.36-7.45-6.8-9.25-4.75-2.27-10.28-3.16-15.64-4.03-9.82-1.59-19.1-3.09-21.43-13-1.61-6.81.75-12.71 6.15-16.37l-3.36-14.26 2.1-.5 3.21 13.6c1.59-.82 3.38-1.47 5.35-1.94 1.71-.41 3.35-.68 4.9-.81l-3.14-13.29 2.1-.5 3.23 13.68h.13c9.5 0 15.61 5.58 18.23 16.67l-2.1.5c-2.94-12.46-10.41-17.08-22.85-14.14-7.25 1.71-14.16 7.04-11.85 16.85 2.01 8.5 10.2 9.83 19.68 11.36 5.51.89 11.2 1.81 16.26 4.23 4.05 2.11 6.79 5.8 7.94 10.69 1.4 5.95.78 11.33-1.79 15.56-1.71 2.81-4.21 5.08-7.48 6.79l3.12 13.24-2.1.5-3.02-12.8c-1.55.65-3.24 1.19-5.07 1.62-1.77.42-3.55.65-5.28.71l3.05 12.92-2.1.5z" fill="#fff"/><path d="m140.592 334.97c4.71 24.67 40.69 59.03 79.45 59.03s74.74-34.37 79.45-59.03v-123.7h-158.9z" fill="#fff238"/><path d="m284.681 229.91c-.6 0-1.08-.48-1.08-1.08v-2.16h-2.16c-.6 0-1.08-.48-1.08-1.08s.48-1.08 1.08-1.08h3.24c.6 0 1.08.48 1.08 1.08v3.24c0 .6-.48 1.08-1.08 1.08zm-9.699-3.24h-6.46c-.6 0-1.08-.48-1.08-1.08s.48-1.08 1.08-1.08h6.46c.6 0 1.08.48 1.08 1.08s-.48 1.08-1.08 1.08zm-12.93 0h-6.46c-.6 0-1.08-.48-1.08-1.08s.48-1.08 1.08-1.08h6.46c.6 0 1.08.48 1.08 1.08s-.48 1.08-1.08 1.08zm-12.93 0h-6.46c-.6 0-1.08-.48-1.08-1.08s.48-1.08 1.08-1.08h6.46c.6 0 1.08.48 1.08 1.08s-.48 1.08-1.08 1.08zm-12.93 0h-6.46c-.6 0-1.08-.48-1.08-1.08s.48-1.08 1.08-1.08h6.46c.6 0 1.08.48 1.08 1.08s-.48 1.08-1.08 1.08zm-12.93 0h-6.46c-.6 0-1.08-.48-1.08-1.08s.48-1.08 1.08-1.08h6.46c.6 0 1.08.48 1.08 1.08s-.48 1.08-1.08 1.08zm-12.93 0h-6.46c-.6 0-1.08-.48-1.08-1.08s.48-1.08 1.08-1.08h6.46c.6 0 1.08.48 1.08 1.08s-.48 1.08-1.08 1.08zm-12.93 0h-6.46c-.6 0-1.08-.48-1.08-1.08s.48-1.08 1.08-1.08h6.46c.6 0 1.08.48 1.08 1.08s-.48 1.08-1.08 1.08zm-12.93 0h-6.46c-.6 0-1.08-.48-1.08-1.08s.48-1.08 1.08-1.08h6.46c.6 0 1.08.48 1.08 1.08s-.48 1.08-1.08 1.08zm-12.93 0h-6.46c-.6 0-1.08-.48-1.08-1.08s.48-1.08 1.08-1.08h6.46c.6 0 1.08.48 1.08 1.08s-.48 1.08-1.08 1.08zm-16.14 3.24c-.6 0-1.08-.48-1.08-1.08v-3.24c0-.6.48-1.08 1.08-1.08h3.24c.6 0 1.08.48 1.08 1.08s-.48 1.08-1.08 1.08h-2.16v2.16c0 .6-.48 1.08-1.08 1.08zm67.97 148.819c-.57 0-1.04-.44-1.08-1.02-.04-.6.42-1.11 1.01-1.14 2.1-.12 4.24-.38 6.37-.75.59-.1 1.14.29 1.25.88.1.59-.29 1.15-.88 1.25-2.21.39-4.44.65-6.62.78h-.06zm-6.54 0h-.07c-2.18-.13-4.41-.4-6.61-.79-.59-.1-.98-.66-.88-1.25s.67-.98 1.25-.88c2.12.38 4.26.63 6.37.77.59.04 1.05.55 1.01 1.15-.04.57-.51 1.01-1.08 1.01zm19.41-2.23c-.47 0-.9-.31-1.04-.78-.16-.58.17-1.17.74-1.34 2.02-.58 4.07-1.28 6.1-2.07.55-.22 1.18.05 1.4.61.22.55-.05 1.18-.61 1.4-2.09.82-4.2 1.54-6.29 2.14-.1.03-.2.04-.3.04zm-32.26-.04c-.1 0-.2-.02-.3-.04-2.09-.6-4.2-1.33-6.29-2.15-.55-.22-.83-.85-.61-1.4s.85-.83 1.4-.61c2.02.8 4.06 1.5 6.09 2.09.57.17.9.76.74 1.34-.14.47-.57.78-1.04.78zm44.43-4.75a1.082 1.082 0 0 1 -.49-2.05c1.89-.95 3.79-2.01 5.64-3.14.51-.31 1.17-.15 1.48.36s.15 1.17-.36 1.48c-1.9 1.16-3.85 2.25-5.8 3.23-.15.08-.32.11-.48.11zm-56.59-.07c-.16 0-.33-.04-.49-.12a78.63 78.63 0 0 1 -5.79-3.23c-.51-.31-.67-.98-.36-1.49s.98-.67 1.48-.36c1.84 1.13 3.74 2.19 5.63 3.15.53.27.75.92.48 1.45-.19.38-.57.6-.96.6zm67.74-6.76c-.33 0-.66-.15-.87-.45-.35-.48-.24-1.16.24-1.51 1.74-1.27 3.44-2.62 5.06-4.02a1.077 1.077 0 1 1 1.41 1.63 86.23 86.23 0 0 1 -5.2 4.12c-.19.14-.42.21-.63.21zm-78.89-.07c-.22 0-.44-.07-.63-.21a86.23 86.23 0 0 1 -5.2-4.12c-.45-.39-.51-1.07-.12-1.52s1.07-.51 1.52-.11c1.63 1.4 3.33 2.75 5.06 4.02.48.35.59 1.03.24 1.51-.21.29-.54.44-.87.44zm88.8-8.46a1.077 1.077 0 0 1 -.76-1.84c1.53-1.55 2.99-3.16 4.33-4.78a1.079 1.079 0 1 1 1.66 1.38 78.6 78.6 0 0 1 -4.46 4.92c-.21.21-.49.32-.77.32zm-98.72-.08c-.28 0-.56-.11-.77-.32a81.875 81.875 0 0 1 -4.47-4.91 1.079 1.079 0 1 1 1.66-1.38c1.35 1.63 2.81 3.23 4.34 4.78.42.43.42 1.11 0 1.53-.21.21-.49.31-.76.31zm107.05-10.02c-.21 0-.42-.06-.6-.18-.49-.33-.62-1.01-.29-1.5 1.24-1.84 2.34-3.7 3.27-5.52.27-.53.92-.74 1.45-.47s.74.92.47 1.46a55.06 55.06 0 0 1 -3.41 5.74c-.21.31-.55.48-.89.48zm-115.4-.06c-.34 0-.68-.17-.89-.47a56.9 56.9 0 0 1 -3.43-5.72 1.08 1.08 0 0 1 .46-1.46 1.08 1.08 0 0 1 1.46.46c.95 1.82 2.06 3.67 3.3 5.5.34.49.21 1.17-.28 1.5-.19.13-.4.19-.61.19zm121.27-11.61c-.11 0-.22-.02-.33-.05-.57-.18-.88-.79-.7-1.36.42-1.28.74-2.54.96-3.76v-2.33c0-.6.48-1.08 1.08-1.08s1.08.48 1.08 1.08v2.43c0 .06 0 .13-.02.19a31.04 31.04 0 0 1 -1.05 4.14c-.15.46-.57.75-1.03.75zm-127.22-.02c-.45 0-.87-.29-1.02-.74-.47-1.4-.83-2.79-1.09-4.12-.01-.07-.02-.14-.02-.2v-2.43c0-.6.48-1.08 1.08-1.08s1.08.48 1.08 1.08v2.33c.24 1.2.57 2.46 1 3.74a1.085 1.085 0 0 1 -1.02 1.43zm128.23-12.95c-.6 0-1.08-.48-1.08-1.08v-6.55c0-.6.48-1.08 1.08-1.08s1.08.48 1.08 1.08v6.55c0 .6-.48 1.08-1.08 1.08zm-129.28 0c-.6 0-1.08-.48-1.08-1.08v-6.55c0-.6.48-1.08 1.08-1.08s1.08.48 1.08 1.08v6.55c0 .6-.48 1.08-1.08 1.08zm129.28-13.09c-.6 0-1.08-.48-1.08-1.08v-6.55c0-.6.48-1.08 1.08-1.08s1.08.48 1.08 1.08v6.55c0 .6-.48 1.08-1.08 1.08zm-129.28 0c-.6 0-1.08-.48-1.08-1.08v-6.55c0-.6.48-1.08 1.08-1.08s1.08.48 1.08 1.08v6.55c0 .6-.48 1.08-1.08 1.08zm129.28-13.09c-.6 0-1.08-.48-1.08-1.08v-6.55c0-.6.48-1.08 1.08-1.08s1.08.48 1.08 1.08v6.55c0 .6-.48 1.08-1.08 1.08zm-129.28 0c-.6 0-1.08-.48-1.08-1.08v-6.55c0-.6.48-1.08 1.08-1.08s1.08.48 1.08 1.08v6.55c0 .6-.48 1.08-1.08 1.08zm129.28-13.09c-.6 0-1.08-.48-1.08-1.08v-6.55c0-.6.48-1.08 1.08-1.08s1.08.48 1.08 1.08v6.55c0 .6-.48 1.08-1.08 1.08zm-129.28 0c-.6 0-1.08-.48-1.08-1.08v-6.55c0-.6.48-1.08 1.08-1.08s1.08.48 1.08 1.08v6.55c0 .6-.48 1.08-1.08 1.08zm129.28-13.09c-.6 0-1.08-.48-1.08-1.08v-6.55c0-.6.48-1.08 1.08-1.08s1.08.48 1.08 1.08v6.55c0 .6-.48 1.08-1.08 1.08zm-129.28 0c-.6 0-1.08-.48-1.08-1.08v-6.55c0-.6.48-1.08 1.08-1.08s1.08.48 1.08 1.08v6.55c0 .6-.48 1.08-1.08 1.08zm129.28-13.09c-.6 0-1.08-.48-1.08-1.08v-6.55c0-.6.48-1.08 1.08-1.08s1.08.48 1.08 1.08v6.55c0 .6-.48 1.08-1.08 1.08zm-129.28 0c-.6 0-1.08-.48-1.08-1.08v-6.55c0-.6.48-1.08 1.08-1.08s1.08.48 1.08 1.08v6.55c0 .6-.48 1.08-1.08 1.08zm129.28-13.09c-.6 0-1.08-.48-1.08-1.08v-6.55c0-.6.48-1.08 1.08-1.08s1.08.48 1.08 1.08v6.55c0 .6-.48 1.08-1.08 1.08zm-129.28 0c-.6 0-1.08-.48-1.08-1.08v-6.55c0-.6.48-1.08 1.08-1.08s1.08.48 1.08 1.08v6.55c0 .6-.48 1.08-1.08 1.08z" fill="#231f20"/><path d="m157.621 290.26c-.21 0-.43-.06-.61-.19l-2.22-1.54c-.49-.34-.61-1.01-.27-1.5s1.01-.61 1.5-.27l2.22 1.54a1.076 1.076 0 0 1 -.62 1.96zm55.57 38.5c-.21 0-.42-.06-.61-.19l-4.63-3.21c-.49-.34-.61-1.01-.27-1.5s1.01-.61 1.5-.27l4.63 3.21a1.076 1.076 0 0 1 -.62 1.96zm-9.26-6.42c-.21 0-.43-.06-.61-.19l-4.63-3.21c-.49-.34-.61-1.01-.27-1.5s1.01-.61 1.5-.27l4.63 3.21a1.076 1.076 0 0 1 -.62 1.96zm-9.26-6.42c-.21 0-.43-.06-.61-.19l-4.63-3.21c-.49-.34-.61-1.01-.27-1.5s1.01-.61 1.5-.27l4.63 3.21c.49.34.61 1.01.27 1.5-.21.3-.54.47-.89.47zm-9.26-6.42c-.21 0-.42-.06-.61-.19l-4.63-3.21c-.49-.34-.61-1.01-.27-1.5s1.01-.61 1.5-.27l4.63 3.21a1.076 1.076 0 0 1 -.62 1.96zm-9.26-6.42c-.21 0-.43-.06-.61-.19l-4.63-3.21c-.49-.34-.61-1.01-.27-1.5s1.01-.62 1.5-.27l4.63 3.21a1.076 1.076 0 0 1 -.62 1.96zm-9.26-6.42c-.21 0-.43-.06-.61-.19l-4.63-3.21c-.49-.34-.61-1.02-.27-1.5.34-.49 1.01-.62 1.5-.27l4.63 3.21c.49.34.61 1.01.27 1.5-.21.3-.54.47-.89.47zm53.15 36.85c-.22 0-.43-.06-.61-.19l-2.22-1.54c-.49-.34-.61-1.01-.27-1.5s1.01-.61 1.5-.27l1.6 1.11 1.61-1.11a1.07 1.07 0 0 1 1.5.28c.34.49.22 1.16-.28 1.5l-2.22 1.53c-.18.13-.4.19-.61.19zm6.85-4.74c-.34 0-.68-.16-.89-.46a1.07 1.07 0 0 1 .28-1.5l4.63-3.2a1.078 1.078 0 1 1 1.22 1.78l-4.63 3.2c-.19.13-.4.19-.61.19zm9.25-6.4a1.078 1.078 0 0 1 -.61-1.97l4.63-3.2a1.07 1.07 0 0 1 1.5.28c.34.49.21 1.16-.28 1.5l-4.63 3.2c-.19.13-.4.19-.61.19zm9.25-6.4c-.34 0-.68-.16-.89-.46-.34-.49-.21-1.16.27-1.5l4.63-3.2c.49-.34 1.16-.21 1.5.28s.22 1.16-.28 1.5l-4.62 3.2c-.19.13-.4.19-.61.19zm9.25-6.4a1.085 1.085 0 0 1 -.62-1.97l4.63-3.2a1.07 1.07 0 0 1 1.5.28c.34.49.21 1.16-.27 1.5l-4.63 3.2c-.19.13-.4.19-.61.19zm9.25-6.4a1.078 1.078 0 0 1 -.61-1.97l4.63-3.2a1.07 1.07 0 0 1 1.5.28c.34.49.21 1.16-.28 1.5l-4.63 3.2c-.19.13-.4.19-.61.19zm9.25-6.4c-.34 0-.68-.16-.89-.46-.34-.49-.21-1.16.28-1.5l4.63-3.2a1.07 1.07 0 0 1 1.5.28c.34.49.21 1.16-.28 1.5l-4.63 3.2c-.19.13-.4.19-.61.19zm9.279-6.4c-.34 0-.68-.16-.89-.46-.34-.49-.21-1.16.27-1.5l2.22-1.53a1.07 1.07 0 0 1 1.5.28c.34.49.21 1.16-.27 1.5l-2.22 1.53c-.19.13-.4.19-.61.19zm-124.799 13.01c-.21 0-.43-.06-.61-.19l-2.22-1.54c-.49-.34-.61-1.01-.27-1.5s1.01-.61 1.5-.27l2.22 1.54c.49.34.61 1.01.27 1.5-.21.3-.54.47-.89.47zm55.57 38.5c-.21 0-.42-.06-.61-.19l-4.63-3.21c-.49-.34-.61-1.01-.27-1.5s1.01-.61 1.5-.27l4.63 3.21c.49.34.61 1.01.27 1.5-.21.3-.54.47-.89.47zm-9.26-6.42c-.21 0-.43-.06-.61-.19l-4.63-3.21c-.49-.34-.61-1.01-.27-1.5s1.01-.61 1.5-.27l4.63 3.21c.49.34.61 1.01.27 1.5-.21.3-.55.47-.89.47zm-9.26-6.42c-.21 0-.43-.06-.61-.19l-4.63-3.21c-.49-.34-.61-1.01-.27-1.5s1.01-.61 1.5-.27l4.63 3.21c.49.34.61 1.01.27 1.5-.21.3-.54.47-.89.47zm-9.26-6.42c-.21 0-.42-.06-.61-.19l-4.63-3.21c-.49-.34-.61-1.01-.27-1.5s1.01-.61 1.5-.27l4.63 3.21a1.076 1.076 0 0 1 -.62 1.96zm-9.26-6.42c-.21 0-.43-.06-.61-.19l-4.63-3.21c-.49-.34-.61-1.01-.27-1.5s1.01-.61 1.5-.27l4.63 3.21a1.076 1.076 0 0 1 -.62 1.96zm-9.26-6.42c-.21 0-.43-.06-.61-.19l-4.63-3.21c-.49-.34-.61-1.01-.27-1.5s1.01-.61 1.5-.27l4.63 3.21c.49.34.61 1.01.27 1.5-.21.3-.54.47-.89.47zm53.15 36.85c-.22 0-.43-.06-.61-.19l-2.22-1.54c-.49-.34-.61-1.01-.27-1.5s1.01-.62 1.5-.27l1.6 1.11 1.61-1.11c.49-.34 1.16-.21 1.5.28s.22 1.16-.28 1.5l-2.22 1.53c-.18.13-.4.19-.61.19zm6.841-4.731a1.076 1.076 0 0 1 -.62-1.96l4.61-3.19c.49-.34 1.17-.22 1.5.28.34.49.21 1.16-.28 1.5l-4.61 3.19c-.19.13-.4.19-.61.19zm9.23-6.38c-.34 0-.68-.16-.89-.46-.34-.49-.21-1.16.27-1.5l4.61-3.19c.49-.34 1.16-.22 1.5.27s.21 1.16-.28 1.5l-4.61 3.19c-.19.13-.4.19-.61.19zm9.23-6.38c-.34 0-.68-.16-.89-.46-.34-.49-.21-1.16.27-1.5l4.61-3.19c.49-.34 1.16-.22 1.5.27s.21 1.16-.28 1.5l-4.61 3.19c-.19.13-.4.19-.61.19zm9.23-6.38c-.34 0-.68-.16-.89-.47a1.07 1.07 0 0 1 .28-1.5l4.61-3.19a1.07 1.07 0 0 1 1.5.28c.34.49.21 1.16-.28 1.5l-4.61 3.19c-.19.13-.4.19-.61.19zm9.23-6.38c-.34 0-.68-.16-.89-.47-.34-.49-.22-1.16.27-1.5l4.61-3.19a1.078 1.078 0 1 1 1.22 1.78l-4.61 3.19c-.19.13-.4.19-.61.19zm9.23-6.38c-.34 0-.68-.16-.89-.46a1.07 1.07 0 0 1 .28-1.5l4.61-3.19a1.07 1.07 0 0 1 1.5.28c.34.49.22 1.16-.27 1.5l-4.61 3.19c-.19.13-.4.19-.61.19zm9.21-6.399c-.34 0-.68-.16-.89-.46-.34-.49-.21-1.16.28-1.5l2.22-1.54c.49-.34 1.16-.22 1.5.27s.21 1.16-.27 1.5l-2.22 1.54c-.19.13-.4.19-.61.19z" fill="#231f20"/><path d="m199.142 211.26c-2.08 7.98 4.16 13.17 11.36 19.16 4.29 3.57 8.72 7.26 11.85 11.92 2.42 3.88 2.9 8.45 1.41 13.25-3.1 9.97-9.97 15.02-19.34 14.53l-4.03 13-2.06-.64 3.9-12.57c-1.66-.23-3.39-.62-5.18-1.18-1.74-.54-3.39-1.24-4.91-2.08l-3.93 12.67-2.06-.64 4.1-13.19c-2.3-1.55-4.24-3.45-5.69-5.6-3.31-4.91-3.98-10.99-1.93-17.59.26-.82.57-1.84.99-2.75l1.96.89c-.36.79-.65 1.74-.89 2.5-1.88 6.04-1.32 11.34 1.66 15.74 2.45 3.63 6.49 6.47 11.35 7.98 11.99 3.73 20.51-.43 24.02-11.71 1.3-4.18.9-8.13-1.16-11.43-2.94-4.37-7.25-7.96-11.42-11.43-7.3-6.08-14.22-11.83-12.2-20.8" fill="#000"/><path d="m196.922 211.27c.1-.43.21-.86.35-1.3 1.48-4.76 4.43-8.15 8.54-9.82 1.57-.64 3.28-1.01 5.07-1.13l4.35-14 2.06.64-4.15 13.36c1.8.1 3.68.45 5.59 1.05 1.69.53 3.23 1.12 4.63 1.78l4.05-13.03 2.06.64-4.16 13.41c3.86 2.23 6.42 5.12 7.76 8.74l-2.02.75c-1.75-4.71-5.99-8.06-12.96-10.23-4.23-1.31-8.2-1.31-11.47.02-3.49 1.42-6.01 4.34-7.29 8.46-.07.22-.13.43-.18.64" fill="#fff"/><path d="m241.042 211.26h-12.2v4.37h12.2z" fill="#fff238"/></svg>