<svg width="340" height="184" viewBox="0 0 340 184" fill="none" xmlns="http://www.w3.org/2000/svg">
<path d="M310.564 0H58.1473C52.0786 0 47.1589 4.92115 47.1589 10.9917V170.519C47.1589 176.589 52.0786 181.51 58.1473 181.51H310.564C316.633 181.51 321.553 176.589 321.553 170.519V10.9917C321.553 4.92115 316.633 0 310.564 0Z" fill="#455A64"/>
<path d="M35.6804 168.089H332.971V170.541C332.971 174.103 331.557 177.518 329.039 180.037C326.522 182.555 323.107 183.97 319.547 183.97H49.1048C47.3419 183.97 45.5963 183.622 43.9675 182.948C42.3388 182.273 40.8589 181.284 39.6123 180.037C38.3658 178.79 37.3769 177.309 36.7023 175.68C36.0276 174.051 35.6804 172.305 35.6804 170.541V168.089Z" fill="#455A64"/>
<path d="M313.415 7.21216H54.5198V160.493H313.415V7.21216Z" fill="#263238"/>
<path d="M157.307 168.089L160.995 173.959H212.905L216.329 168.089H157.307Z" fill="#263238"/>
<path d="M306.152 12.4025H62.318C60.956 12.4025 59.8518 13.5069 59.8518 14.8694V157.535C59.8518 158.898 60.956 160.002 62.318 160.002H306.152C307.514 160.002 308.618 158.898 308.618 157.535V14.8694C308.618 13.5069 307.514 12.4025 306.152 12.4025Z" fill="#EBEBEB"/>
<path d="M308.618 23.2207H59.8518V160.01H308.618V23.2207Z" fill="#FAFAFA"/>
<path d="M80.2602 18.1058C80.2602 18.4997 80.1434 18.8847 79.9246 19.2123C79.7058 19.5398 79.3949 19.7951 79.0311 19.9458C78.6672 20.0965 78.2669 20.136 77.8807 20.0591C77.4945 19.9823 77.1397 19.7926 76.8612 19.5141C76.5828 19.2355 76.3932 18.8807 76.3163 18.4943C76.2395 18.108 76.2789 17.7075 76.4296 17.3436C76.5803 16.9797 76.8355 16.6686 77.163 16.4498C77.4904 16.2309 77.8753 16.1141 78.2691 16.1141C78.7972 16.1141 79.3036 16.324 79.677 16.6975C80.0504 17.071 80.2602 17.5776 80.2602 18.1058Z" fill="#263238"/>
<path d="M68.2157 18.1058C68.2157 18.5 68.0987 18.8854 67.8796 19.2131C67.6605 19.5407 67.3491 19.796 66.9849 19.9465C66.6206 20.097 66.2199 20.136 65.8335 20.0586C65.447 19.9811 65.0923 19.7907 64.8141 19.5114C64.536 19.2321 64.347 18.8765 64.271 18.4897C64.195 18.1029 64.2355 17.7022 64.3874 17.3384C64.5392 16.9746 64.7956 16.6641 65.124 16.4461C65.4524 16.2282 65.8381 16.1127 66.2322 16.1142C66.4933 16.1141 66.7519 16.1657 66.993 16.2659C67.2342 16.3661 67.4532 16.5129 67.6374 16.6979C67.8217 16.883 67.9677 17.1026 68.0669 17.3442C68.1661 17.5858 68.2167 17.8446 68.2157 18.1058Z" fill="#263238"/>
<path d="M74.0004 18.1058C74.0004 18.4997 73.8836 18.8847 73.6648 19.2123C73.4461 19.5398 73.1351 19.7951 72.7713 19.9458C72.4075 20.0965 72.0071 20.136 71.6209 20.0591C71.2347 19.9823 70.8799 19.7926 70.6015 19.5141C70.323 19.2355 70.1334 18.8807 70.0566 18.4943C69.9797 18.108 70.0192 17.7075 70.1699 17.3436C70.3206 16.9797 70.5758 16.6686 70.9032 16.4498C71.2306 16.2309 71.6156 16.1141 72.0094 16.1141C72.5374 16.1141 73.0438 16.324 73.4172 16.6975C73.7906 17.071 74.0004 17.5776 74.0004 18.1058Z" fill="#263238"/>
<path d="M319.2 168.089C319.2 168.188 258.292 168.263 183.183 168.263C108.074 168.263 47.1589 168.188 47.1589 168.089C47.1589 167.991 108.044 167.908 183.183 167.908C258.322 167.908 319.2 167.991 319.2 168.089Z" fill="#455A64"/>
<path d="M133.86 92.1283H77.0923V95.9305H133.86V92.1283Z" fill="#E0E0E0"/>
<path d="M207.189 39.3876H150.421V43.1898H207.189V39.3876Z" fill="#E0E0E0"/>
<path d="M291.619 53.5327C291.619 53.6307 260.004 53.7137 221.02 53.7137C182.037 53.7137 150.421 53.6307 150.421 53.5327C150.421 53.4346 182.022 53.3517 221.02 53.3517C260.019 53.3517 291.619 53.4346 291.619 53.5327Z" fill="#E0E0E0"/>
<path d="M291.619 61.8312C291.619 61.9292 260.004 62.0046 221.02 62.0046C182.037 62.0046 150.421 61.9292 150.421 61.8312C150.421 61.7331 182.022 61.6501 221.02 61.6501C260.019 61.6501 291.619 61.7256 291.619 61.8312Z" fill="#E0E0E0"/>
<path d="M291.619 70.1222C291.619 70.2202 260.004 70.3032 221.02 70.3032C182.037 70.3032 150.421 70.2202 150.421 70.1222C150.421 70.0241 182.022 69.9412 221.02 69.9412C260.019 69.9412 291.619 70.0241 291.619 70.1222Z" fill="#E0E0E0"/>
<path d="M291.619 78.4131C291.619 78.5111 260.004 78.5941 221.02 78.5941C182.037 78.5941 150.421 78.5111 150.421 78.4131C150.421 78.315 182.022 78.2396 221.02 78.2396C260.019 78.2396 291.619 78.315 291.619 78.4131Z" fill="#E0E0E0"/>
<path d="M291.619 86.7115C291.619 86.8096 260.004 86.8925 221.02 86.8925C182.037 86.8925 150.421 86.8096 150.421 86.7115C150.421 86.6135 182.022 86.5305 221.02 86.5305C260.019 86.5305 291.619 86.6135 291.619 86.7115Z" fill="#E0E0E0"/>
<path d="M205.537 94.9723C205.537 95.0703 193.199 95.1533 177.979 95.1533C162.76 95.1533 150.421 95.0703 150.421 94.9723C150.421 94.8743 162.752 94.7988 177.979 94.7988C193.206 94.7988 205.537 94.9044 205.537 94.9723Z" fill="#E0E0E0"/>
<path d="M290.586 111.102C290.586 111.2 269.808 111.283 244.181 111.283C218.554 111.283 197.776 111.2 197.776 111.102C197.776 111.004 218.547 110.928 244.181 110.928C269.816 110.928 290.586 111.004 290.586 111.102Z" fill="#E0E0E0"/>
<path d="M290.586 119.906C290.586 120.004 269.808 120.087 244.181 120.087C218.554 120.087 197.776 120.004 197.776 119.906C197.776 119.807 218.547 119.732 244.181 119.732C269.816 119.732 290.586 119.807 290.586 119.906Z" fill="#E0E0E0"/>
<path d="M290.586 128.717C290.586 128.815 269.808 128.89 244.181 128.89C218.554 128.89 197.776 128.815 197.776 128.717C197.776 128.619 218.547 128.536 244.181 128.536C269.816 128.536 290.586 128.619 290.586 128.717Z" fill="#E0E0E0"/>
<path d="M290.586 137.521C290.586 137.619 269.808 137.694 244.181 137.694C218.554 137.694 197.776 137.619 197.776 137.521C197.776 137.423 218.547 137.34 244.181 137.34C269.816 137.34 290.586 137.423 290.586 137.521Z" fill="#E0E0E0"/>
<path d="M134.003 110.264C134.003 110.362 121.619 110.438 106.347 110.438C91.075 110.438 78.6838 110.362 78.6838 110.264C78.6838 110.166 91.0675 110.083 106.347 110.083C121.627 110.083 134.003 110.166 134.003 110.264Z" fill="#E0E0E0"/>
<path d="M134.003 117.175C134.003 117.273 121.619 117.356 106.347 117.356C91.075 117.356 78.6838 117.273 78.6838 117.175C78.6838 117.077 91.0675 117.001 106.347 117.001C121.627 117.001 134.003 117.077 134.003 117.175Z" fill="#E0E0E0"/>
<path d="M134.003 124.093C134.003 124.191 121.619 124.266 106.347 124.266C91.075 124.266 78.6838 124.191 78.6838 124.093C78.6838 123.994 91.0675 123.911 106.347 123.911C121.627 123.911 134.003 123.994 134.003 124.093Z" fill="#E0E0E0"/>
<path d="M134.003 131.003C134.003 131.101 121.619 131.184 106.347 131.184C91.075 131.184 78.6838 131.101 78.6838 131.003C78.6838 130.905 91.0675 130.829 106.347 130.829C121.627 130.829 134.003 130.905 134.003 131.003Z" fill="#E0E0E0"/>
<path d="M134.003 137.921C134.003 138.019 121.619 138.102 106.347 138.102C91.075 138.102 78.6838 138.019 78.6838 137.921C78.6838 137.823 91.0675 137.74 106.347 137.74C121.627 137.74 134.003 137.823 134.003 137.921Z" fill="#E0E0E0"/>
<path d="M190.657 106.9H150.384V145.88H190.657V106.9Z" fill="#F5F5F5"/>
<path d="M153.506 142.545L164.645 122.486L173.763 135.311L179.299 128.498L187.535 142.545H153.506Z" fill="#EBEBEB"/>
<path d="M177.64 118.585C177.64 119.158 177.47 119.718 177.152 120.195C176.833 120.671 176.381 121.042 175.852 121.262C175.323 121.481 174.741 121.538 174.179 121.427C173.617 121.315 173.101 121.039 172.696 120.634C172.291 120.229 172.015 119.712 171.903 119.15C171.792 118.588 171.849 118.006 172.068 117.477C172.287 116.947 172.659 116.495 173.135 116.177C173.611 115.858 174.171 115.688 174.744 115.688C175.512 115.688 176.248 115.994 176.792 116.537C177.335 117.08 177.64 117.817 177.64 118.585Z" fill="#EBEBEB"/>
<path d="M187.535 142.651C187.535 142.651 187.535 142.598 187.535 142.492C187.535 142.387 187.535 142.228 187.535 142.04C187.535 141.625 187.535 141.036 187.535 140.282C187.535 138.773 187.535 136.51 187.497 133.666C187.497 127.97 187.444 119.868 187.407 110.128L187.572 110.294H153.544C153.499 110.294 153.906 109.932 153.732 110.106V127.246C153.732 132.708 153.732 137.868 153.732 142.613L153.566 142.447L178.175 142.53L185.114 142.575H186.954H187.595C187.595 142.575 187.55 142.575 187.452 142.575H186.901H185.091L178.19 142.621L153.476 142.711H153.31V142.538C153.31 137.792 153.31 132.632 153.31 127.17V110.143C153.137 110.309 153.536 109.902 153.499 109.947H187.527H187.693V110.106C187.693 119.913 187.633 128.03 187.61 133.749C187.61 136.57 187.61 138.796 187.565 140.327C187.565 141.082 187.565 141.647 187.565 142.055C187.565 142.236 187.565 142.379 187.565 142.492C187.565 142.606 187.542 142.658 187.535 142.651Z" fill="#EBEBEB"/>
<path d="M132.789 32.8997H78.1633V85.7685H132.789V32.8997Z" fill="#F5F5F5"/>
<path d="M82.4019 81.2421L97.5156 54.0382L109.877 71.4273L117.381 62.1934L128.558 81.2421H82.4019Z" fill="#E0E0E0"/>
<path d="M115.141 48.7499C115.141 49.5288 114.91 50.2901 114.477 50.9377C114.045 51.5853 113.43 52.0901 112.71 52.3882C111.991 52.6862 111.2 52.7642 110.436 52.6122C109.672 52.4603 108.971 52.0852 108.42 51.5345C107.87 50.9838 107.495 50.2821 107.343 49.5182C107.191 48.7543 107.269 47.9625 107.567 47.2429C107.865 46.5233 108.369 45.9083 109.017 45.4756C109.664 45.0429 110.425 44.8119 111.204 44.8119C112.248 44.8119 113.249 45.2268 113.988 45.9653C114.726 46.7038 115.141 47.7055 115.141 48.7499Z" fill="#E0E0E0"/>
<path d="M128.558 81.393C128.552 81.3202 128.552 81.2471 128.558 81.1742C128.558 81.0158 128.558 80.8121 128.558 80.5556C128.558 79.9974 128.558 79.1977 128.558 78.1792C128.558 76.082 128.558 73.0493 128.505 69.2018C128.505 61.4767 128.437 50.4849 128.384 37.2828L128.61 37.5016L82.4621 37.5393C82.3943 37.5921 82.9448 37.0489 82.711 37.2828V49.1572C82.711 53.0399 82.711 56.837 82.711 60.5487C82.711 67.9495 82.711 74.9504 82.711 81.393L82.4848 81.1667L115.857 81.2799L125.269 81.3402H127.766H128.414H128.641H128.437H127.819H125.36L116.001 81.393L82.4848 81.5137H82.2585V81.393C82.2585 74.9504 82.2585 67.9495 82.2585 60.5487C82.2585 56.8421 82.2585 53.0449 82.2585 49.1572C82.2585 47.2108 82.2585 45.2468 82.2585 43.2653V37.2828C82.0323 37.5167 82.5753 36.9584 82.53 37.0188H128.678H128.905V37.2451C128.852 50.5 128.814 61.5445 128.784 69.3074C128.784 73.1322 128.784 76.1499 128.731 78.232C128.731 79.2354 128.731 80.0124 128.731 80.5707C128.731 80.8121 128.731 81.0083 128.731 81.1591C128.686 81.2459 128.628 81.3248 128.558 81.393Z" fill="#E0E0E0"/>
<path d="M140.112 52.9896L142.812 58.4591L148.845 59.3342L144.479 63.5966L145.512 69.6092L140.112 66.7651L134.719 69.6092L135.745 63.5966L131.378 59.3342L137.412 58.4591L140.112 52.9896Z" fill="#DF5D5D"/>
<path d="M159.125 33.9785L161.817 39.448L167.851 40.3231L163.484 44.5855L164.517 50.5906L159.125 47.754L153.725 50.5906L154.758 44.5855L150.391 40.3231L156.425 39.448L159.125 33.9785Z" fill="#DF5D5D"/>
<path d="M184.526 26.5175L187.218 31.9869L193.259 32.862L188.885 37.1169L189.918 43.1295L184.526 40.2929L179.126 43.1295L180.159 37.1169L175.792 32.862L181.826 31.9869L184.526 26.5175Z" fill="#DF5D5D"/>
<path d="M210.809 34.1521L213.509 39.6216L219.542 40.5042L215.175 44.7591L216.209 50.7717L210.809 47.9351L205.416 50.7717L206.449 44.7591L202.083 40.5042L208.116 39.6216L210.809 34.1521Z" fill="#DF5D5D"/>
<path d="M228.932 52.2804L231.632 57.7499L237.665 58.625L233.298 62.8874L234.324 68.8924L228.932 66.0559L223.532 68.8924L224.565 62.8874L220.198 58.625L226.232 57.7499L228.932 52.2804Z" fill="#DF5D5D"/>
<path d="M235.501 78.5791L238.2 84.0486L244.234 84.9237L239.867 89.1785L240.9 95.1912L235.501 92.3546L230.108 95.1912L231.134 89.1785L226.767 84.9237L232.808 84.0486L235.501 78.5791Z" fill="#DF5D5D"/>
<path d="M229.105 104.697L231.805 110.166L237.838 111.041L233.472 115.304L234.505 121.316L229.105 118.472L223.713 121.316L224.738 115.304L220.372 111.041L226.413 110.166L229.105 104.697Z" fill="#DF5D5D"/>
<path d="M209.866 122.818L212.566 128.287L218.599 129.17L214.233 133.424L215.266 139.437L209.866 136.601L204.466 139.437L205.499 133.424L201.133 129.17L207.166 128.287L209.866 122.818Z" fill="#DF5D5D"/>
<path d="M184.013 130.294L186.713 135.763L192.746 136.638L188.379 140.893L189.405 146.906L184.013 144.069L178.613 146.906L179.646 140.893L175.279 136.638L181.313 135.763L184.013 130.294Z" fill="#DF5D5D"/>
<path d="M159.321 122.833L162.021 128.302L168.054 129.177L163.688 133.432L164.713 139.445L159.321 136.608L153.921 139.445L154.954 133.432L150.587 129.177L156.621 128.302L159.321 122.833Z" fill="#DF5D5D"/>
<path d="M139.78 104.221L142.48 109.691L148.513 110.574L144.147 114.828L145.18 120.841L139.78 118.004L134.387 120.841L135.413 114.828L131.046 110.574L137.08 109.691L139.78 104.221Z" fill="#DF5D5D"/>
<path d="M133.211 78.6093L135.903 84.0787L141.937 84.9538L137.578 89.2087L138.603 95.2213L133.211 92.3847L127.811 95.2213L128.844 89.2087L124.478 84.9538L130.511 84.0787L133.211 78.6093Z" fill="#DF5D5D"/>
<path d="M203.146 97.3713H197.867V68.6209C197.788 65.4192 196.46 62.3754 194.169 60.139C191.877 57.9027 188.802 56.6509 185.6 56.6509C182.399 56.6509 179.324 57.9027 177.032 60.139C174.74 62.3754 173.413 65.4192 173.333 68.6209V97.3713H168.054V68.6209C168.149 64.029 170.04 59.6573 173.32 56.4435C176.6 53.2296 181.009 51.4297 185.6 51.4297C190.192 51.4297 194.6 53.2296 197.881 56.4435C201.161 59.6573 203.051 64.029 203.146 68.6209V97.3713Z" fill="#263238"/>
<path d="M204.858 84.5842H166.335C163.915 84.5842 161.953 86.5466 161.953 88.9673V110.551C161.953 112.972 163.915 114.934 166.335 114.934H204.858C207.278 114.934 209.24 112.972 209.24 110.551V88.9673C209.24 86.5466 207.278 84.5842 204.858 84.5842Z" fill="#DF5D5D"/>
<path d="M189.556 95.8022C189.557 96.5862 189.326 97.353 188.892 98.0055C188.457 98.658 187.839 99.1668 187.115 99.4675C186.391 99.7682 185.595 99.8473 184.826 99.6947C184.057 99.5421 183.351 99.1647 182.797 98.6104C182.242 98.056 181.865 97.3496 181.713 96.5806C181.56 95.8116 181.639 95.0146 181.94 94.2906C182.24 93.5666 182.749 92.9481 183.401 92.5135C184.054 92.0789 184.82 91.8476 185.604 91.8491C186.651 91.8511 187.655 92.2683 188.396 93.0092C189.137 93.7501 189.554 94.7544 189.556 95.8022Z" fill="#263238"/>
<path d="M186.683 97.3713H184.526V105.504H186.683V97.3713Z" fill="#263238"/>
<path d="M164.479 112.052C164.366 112.052 164.283 106.99 164.283 100.736C164.283 94.482 164.366 89.4199 164.479 89.4199C164.592 89.4199 164.675 94.482 164.675 100.736C164.675 106.99 164.585 112.052 164.479 112.052Z" fill="#FAFAFA"/>
<path d="M182.504 100.872C182.504 100.872 182.323 100.811 182.044 100.608C181.655 100.313 181.312 99.9621 181.026 99.5667C180.535 98.9168 180.193 98.1662 180.025 97.3687C179.857 96.5712 179.868 95.7465 180.056 94.9535C180.244 94.1606 180.605 93.419 181.113 92.7819C181.621 92.1448 182.264 91.6279 182.995 91.2682C183.425 91.0426 183.888 90.8848 184.367 90.8005C184.543 90.7596 184.727 90.7596 184.903 90.8005C184.29 91.0041 183.695 91.2564 183.123 91.5549C182.452 91.9246 181.866 92.4307 181.403 93.0408C180.939 93.6508 180.609 94.3512 180.433 95.0967C180.257 95.8423 180.238 96.6165 180.38 97.3695C180.521 98.1225 180.818 98.8375 181.252 99.4686C181.633 99.9679 182.052 100.437 182.504 100.872Z" fill="#FAFAFA"/>
<path d="M39.9037 71.1104C40.4429 72.8363 40.4005 74.6917 39.783 76.3912C39.1679 78.0783 38.3687 79.6925 37.3998 81.2043C36.1599 78.1861 35.0898 75.1007 34.1946 71.9628C34.0136 71.2763 33.8778 70.454 34.3756 69.9184C34.5833 69.7461 34.8249 69.6194 35.0848 69.5466C35.3447 69.4738 35.617 69.4565 35.8839 69.4959C37.491 69.6001 39.0137 70.2525 40.1978 71.3442" fill="#263238"/>
<path d="M106.407 155.725L118.746 183.94H101.762L89.6722 155.506L106.407 155.725Z" fill="#263238"/>
<path d="M33.0405 183.608C16.3957 178.093 27.814 156.064 27.814 156.064L100.562 162.914C103.356 162.914 106.036 164.022 108.015 165.994C109.994 167.967 111.111 170.644 111.121 173.438C111.121 176.233 110.014 178.914 108.042 180.893C106.07 182.873 103.394 183.99 100.6 184L33.0028 183.638" fill="#ABB9E8"/>
<path d="M16.494 183.992C0.27153 178.515 10.9658 156.079 10.9658 156.079L81.8588 162.763C88.7898 162.854 92.176 166.196 92.176 173.272C92.176 179.081 90.0115 183.985 81.889 183.834L16.4638 184" fill="#ABB9E8"/>
<path d="M32.4749 159.783C32.5426 159.775 32.611 159.775 32.6786 159.783H33.2668L35.5294 159.874L43.8782 160.289L71.3982 161.798C72.7407 161.866 74.068 161.979 75.3728 162.001C76.6775 162.024 77.9822 162.077 79.2493 162.152C80.5163 162.228 81.7682 162.318 83.0202 162.454C84.2324 162.547 85.427 162.8 86.5724 163.208C87.6535 163.631 88.6385 164.267 89.4684 165.079C90.2666 165.896 90.8766 166.877 91.2558 167.954C91.6218 168.956 91.8748 169.996 92.01 171.054C92.1382 172.027 92.2012 173.008 92.1986 173.989C92.23 175.683 91.9117 177.365 91.2634 178.93C90.7729 180.093 90.019 181.126 89.0612 181.948C88.4726 182.454 87.7912 182.841 87.055 183.087C86.5497 183.245 86.5422 183.193 87.055 183.012C87.7665 182.739 88.423 182.34 88.9933 181.835C89.913 181.014 90.6349 179.995 91.105 178.855C91.7154 177.312 92.0078 175.662 91.9648 174.004C91.9595 173.037 91.889 172.072 91.7536 171.115C91.6124 170.084 91.3595 169.072 90.9994 168.097C90.6254 167.069 90.0366 166.133 89.2723 165.351C88.4663 164.555 87.5066 163.931 86.4517 163.518C85.3341 163.132 84.1698 162.899 82.99 162.824C81.7758 162.695 80.5314 162.605 79.2719 162.529C78.0124 162.454 76.7152 162.409 75.4105 162.386C74.1058 162.363 72.7709 162.258 71.4284 162.19L43.9008 160.568L35.5596 160.032L33.297 159.866L32.7088 159.814L32.4749 159.783Z" fill="#263238"/>
<path d="M16.4562 166.731C16.6303 166.862 16.8272 166.959 17.0369 167.018C17.589 167.221 18.1689 167.338 18.7564 167.365C19.7383 167.441 20.7248 167.3 21.6463 166.953C22.5678 166.605 23.4018 166.06 24.0894 165.355C24.7771 164.65 25.3016 163.802 25.6259 162.872C25.9502 161.942 26.0665 160.952 25.9664 159.972C25.9199 159.385 25.7877 158.808 25.5742 158.26C25.5102 158.051 25.4079 157.857 25.2726 157.686C25.4834 158.439 25.6248 159.209 25.6949 159.987C25.7559 160.921 25.62 161.857 25.2961 162.734C24.9722 163.612 24.4674 164.412 23.8147 165.082C23.1619 165.752 22.3756 166.277 21.5068 166.624C20.638 166.97 19.7061 167.13 18.7715 167.094C17.9902 167.045 17.2152 166.923 16.4562 166.731Z" fill="#263238"/>
<path d="M52.5437 122.123L59.271 145.155L84.1816 147.834V152.254L47.5812 152.76L42.5961 122.765L52.5437 122.123Z" fill="#FFBE9D"/>
<path d="M20.0838 98.0579C15.6643 98.0579 3.69547 100.321 2.63961 108.393C1.69689 115.681 0.271484 123.949 0.271484 123.949L16.0263 124.372L10.6566 125.797L8.39402 159.814L49.1198 158.395L46.9628 140.908L45.183 123.429L54.0898 122.674C54.0898 122.674 51.0731 107.458 45.726 102.758C42.3725 100.047 38.2863 98.4001 33.9909 98.0277C29.3564 97.7655 24.7108 97.7655 20.0763 98.0277" fill="#E8505B"/>
<path d="M43.7048 112.128C43.6143 112.128 44.2328 118.284 45.1001 125.858C45.9674 133.432 46.7366 139.558 46.8271 139.55C46.9176 139.543 46.2992 133.394 45.4395 125.82C44.5797 118.246 43.8029 112.12 43.7048 112.128Z" fill="#263238"/>
<path d="M18.8394 98.1106C18.8152 98.2045 18.8 98.3005 18.7942 98.3973C18.7942 98.5859 18.7942 98.865 18.7942 99.2196C18.7694 100.243 18.9173 101.263 19.2316 102.237C19.6517 103.723 20.4494 105.074 21.5469 106.16C22.2223 106.805 23.0234 107.303 23.9 107.624C24.8592 107.937 25.8624 108.095 26.8714 108.091C27.8812 108.118 28.8911 108.049 29.8882 107.888C30.8202 107.744 31.7058 107.385 32.475 106.839C33.7065 105.882 34.574 104.532 34.9336 103.014C35.2013 102.032 35.3157 101.014 35.273 99.9966C35.273 99.6345 35.2278 99.3629 35.2051 99.1743C35.1825 98.9857 35.1674 98.8876 35.1523 98.8876C35.1373 98.8876 35.1523 99.2875 35.1523 99.9966C35.1425 101 34.9954 101.998 34.7149 102.961C34.3441 104.415 33.4938 105.702 32.3015 106.613C31.565 107.124 30.7214 107.459 29.8354 107.594C28.8563 107.757 27.8637 107.825 26.8714 107.797C25.8985 107.803 24.931 107.652 24.0056 107.352C23.1625 107.057 22.3915 106.586 21.743 105.972C20.6801 104.927 19.9013 103.629 19.4805 102.199C19.1504 101.25 18.9697 100.255 18.945 99.2498C18.9297 98.8685 18.8944 98.4882 18.8394 98.1106Z" fill="#263238"/>
<g opacity="0.2">
<path d="M16.6522 112.128C18.1606 119.347 20.129 126.763 21.6449 134.005C21.8551 135.562 22.4006 137.055 23.2438 138.381C23.8627 139.139 24.5865 139.804 25.3932 140.358C28.3037 142.685 31.5412 144.571 35.0015 145.955C29.9494 145.53 24.9447 144.659 20.0461 143.352C19.1872 143.217 18.3944 142.81 17.7835 142.191C17.3686 141.551 17.1365 140.81 17.1123 140.048C16.0263 130.799 16.3581 121.46 16.6372 112.135" fill="black"/>
</g>
<path d="M9.91821e-05 124.07C0.391541 124.133 0.787638 124.164 1.18417 124.16L4.41206 124.281C7.1422 124.364 10.9131 124.462 15.0762 124.545H16.4111H16.5845V124.394C16.7354 120.524 16.66 117.084 16.5845 114.587C16.5845 113.35 16.494 112.361 16.4563 111.675C16.4499 111.318 16.4172 110.963 16.3583 110.611C16.3309 110.965 16.3309 111.321 16.3583 111.675C16.3583 112.429 16.3583 113.403 16.3583 114.594C16.3583 117.061 16.396 120.509 16.2376 124.349L16.4111 124.191H15.0762C10.9131 124.108 7.1422 124.055 4.41206 124.032H1.17662C0.784058 124.015 0.390732 124.027 9.91821e-05 124.07Z" fill="#263238"/>
<path d="M115.382 125.729L101.467 153.062H57.5968L59.3691 149.486L72.0846 149.109L82.4395 126.069C82.7555 125.367 83.2672 124.771 83.9133 124.352C84.5593 123.933 85.3123 123.709 86.0822 123.708H114.145C114.383 123.707 114.617 123.768 114.825 123.884C115.033 124.001 115.207 124.168 115.331 124.371C115.455 124.574 115.525 124.806 115.534 125.044C115.543 125.282 115.491 125.518 115.382 125.729Z" fill="#D9D9D9"/>
<path d="M95.0948 139.663C94.1659 139.663 93.413 138.91 93.413 137.981C93.413 137.052 94.1659 136.299 95.0948 136.299C96.0236 136.299 96.7766 137.052 96.7766 137.981C96.7766 138.91 96.0236 139.663 95.0948 139.663Z" fill="#263238"/>
<path d="M18.6283 77.4399L20.1969 99.7025C20.3209 101.455 21.104 103.096 22.3886 104.294C23.6732 105.492 25.3639 106.159 27.1203 106.16C28.0703 106.16 29.0101 105.965 29.8816 105.587C30.7531 105.209 31.5377 104.656 32.1867 103.962C32.8358 103.268 33.3355 102.448 33.655 101.553C33.9744 100.659 34.1067 99.7076 34.0437 98.7595C33.908 96.6396 33.7798 94.9044 33.7798 94.9044C33.7798 94.9044 39.1571 94.0671 39.2325 88.6806C39.2702 86.1382 38.9308 81.1365 38.5537 76.3913C38.3523 73.7268 37.153 71.2365 35.1955 69.4182C33.2379 67.6 30.6665 66.5878 27.9952 66.584C26.6601 66.6605 25.3539 67.0048 24.1544 67.5963C22.9549 68.1878 21.8865 69.0144 21.0127 70.0271C20.1389 71.0398 19.4776 72.2179 19.068 73.4913C18.6583 74.7647 18.5088 76.1075 18.6283 77.4399Z" fill="#FFBE9D"/>
<path d="M33.8099 95.1685C31.3232 95.2115 28.8797 94.5157 26.7884 93.1693C26.7884 93.1693 28.4476 97.047 33.825 96.5641L33.8099 95.1685Z" fill="#EB996E"/>
<path d="M36.8718 79.884C36.8718 80.084 36.7924 80.2758 36.6509 80.4172C36.5095 80.5587 36.3177 80.6381 36.1176 80.6381C35.92 80.6506 35.7253 80.5848 35.5757 80.455C35.4262 80.3252 35.3337 80.1417 35.3182 79.9443C35.3182 79.7443 35.3977 79.5524 35.5391 79.411C35.6805 79.2696 35.8724 79.1901 36.0724 79.1901C36.2701 79.1776 36.4647 79.2434 36.6143 79.3732C36.7639 79.503 36.8564 79.6865 36.8718 79.884Z" fill="#263238"/>
<path d="M37.3471 78.8353C37.2566 78.9333 36.6683 78.5034 35.8387 78.5034C35.0091 78.5034 34.3982 78.9182 34.3303 78.8202C34.2625 78.7221 34.3831 78.5939 34.6471 78.3978C35.0073 78.1524 35.433 78.021 35.8689 78.0208C36.3 78.0212 36.7199 78.1585 37.068 78.4129C37.3094 78.6015 37.3923 78.79 37.3471 78.8353Z" fill="#263238"/>
<path d="M29.0737 80.1179C29.0737 80.3179 28.9943 80.5097 28.8528 80.6512C28.7114 80.7926 28.5196 80.8721 28.3195 80.8721C28.1231 80.8825 27.9304 80.8158 27.7825 80.6862C27.6346 80.5566 27.5431 80.3743 27.5277 80.1782C27.5277 79.9782 27.6071 79.7864 27.7486 79.6449C27.89 79.5035 28.0818 79.424 28.2818 79.424C28.4782 79.4136 28.671 79.4803 28.8189 79.6099C28.9668 79.7395 29.0583 79.9218 29.0737 80.1179Z" fill="#263238"/>
<path d="M29.2093 78.9862C29.1112 79.0842 28.5305 78.6543 27.7009 78.6543C26.8713 78.6543 26.268 79.0767 26.1925 78.9711C26.1171 78.8655 26.2453 78.7448 26.5093 78.5563C26.8665 78.3046 27.2942 78.1726 27.7311 78.1792C28.1617 78.1754 28.5821 78.3102 28.9302 78.5638C29.1338 78.7599 29.2545 78.9409 29.2093 78.9862Z" fill="#263238"/>
<path d="M32.2186 85.1649C32.6542 85.0284 33.1052 84.9473 33.561 84.9235C33.7722 84.9235 33.9683 84.8631 34.006 84.7123C34.0254 84.4936 33.9753 84.2745 33.8627 84.0861L33.2368 82.4792C32.6574 81.1132 32.1883 79.703 31.834 78.2621C32.5252 79.5778 33.1079 80.9479 33.5761 82.3585L34.1719 83.973C34.3062 84.2276 34.3462 84.5215 34.2851 84.8028C34.2552 84.8777 34.2082 84.9447 34.148 84.9983C34.0878 85.052 34.016 85.091 33.9381 85.1121C33.8204 85.146 33.6986 85.1638 33.5761 85.1649C33.1255 85.2224 32.6693 85.2224 32.2186 85.1649Z" fill="#263238"/>
<path d="M29.775 85.7006C29.9107 85.7006 29.9107 86.5906 30.68 87.209C31.4493 87.8274 32.4071 87.7445 32.4146 87.8727C32.4221 88.0009 32.2034 88.0461 31.7962 88.0612C31.272 88.0647 30.7628 87.8861 30.3557 87.5559C29.9632 87.2357 29.7093 86.7765 29.6468 86.2738C29.6166 85.9193 29.7146 85.6931 29.775 85.7006Z" fill="#263238"/>
<path d="M29.4204 75.7423C29.345 75.9686 28.5154 75.8555 27.5425 75.9761C26.5696 76.0968 25.7852 76.3608 25.657 76.1571C25.5288 75.9535 25.74 75.8479 26.0567 75.6292C26.4762 75.3572 26.9545 75.1892 27.452 75.139C27.949 75.0812 28.4527 75.1406 28.9226 75.3125C29.2771 75.4557 29.4581 75.6368 29.4204 75.7423Z" fill="#263238"/>
<path d="M37.0454 76.4362C36.9021 76.6248 36.2912 76.4362 35.6426 76.4362C34.994 76.4362 34.3756 76.5569 34.2398 76.3608C34.1041 76.1647 34.2398 76.0818 34.5264 75.9008C34.8638 75.68 35.2625 75.5717 35.6652 75.5915C36.0695 75.5998 36.4616 75.7313 36.789 75.9686C37.0303 76.1496 37.1057 76.3457 37.0454 76.4362Z" fill="#263238"/>
<path d="M20.4382 81.823C20.3477 81.7778 16.7427 80.7216 16.8558 84.4107C16.9689 88.0997 20.6267 87.217 20.6267 87.1114C20.6267 87.0058 20.4382 81.823 20.4382 81.823Z" fill="#FFBE9D"/>
<path d="M19.4803 85.7525C19.4803 85.7525 19.4199 85.7978 19.3143 85.8506C19.1597 85.9143 18.9862 85.9143 18.8317 85.8506C18.5933 85.7042 18.3979 85.4973 18.2654 85.2509C18.1329 85.0045 18.0681 84.7274 18.0775 84.4478C18.0554 84.1335 18.107 83.8184 18.2283 83.5277C18.2595 83.411 18.3182 83.3036 18.3996 83.2143C18.481 83.1251 18.5826 83.0567 18.6959 83.0149C18.7693 82.9968 18.8467 83.0033 18.9161 83.0332C18.9855 83.0632 19.0433 83.115 19.0805 83.1808C19.1333 83.2864 19.0805 83.3542 19.1258 83.3618C19.171 83.3693 19.2087 83.3014 19.171 83.1506C19.1506 83.059 19.0969 82.9784 19.0202 82.9244C18.9683 82.8873 18.9096 82.8609 18.8475 82.8467C18.7854 82.8324 18.721 82.8306 18.6582 82.8414C18.5089 82.8759 18.3708 82.9481 18.2573 83.0511C18.1438 83.154 18.0585 83.2844 18.0096 83.4297C17.8649 83.754 17.8003 84.1084 17.8211 84.4629C17.8114 84.7919 17.9003 85.1164 18.0764 85.3945C18.2524 85.6727 18.5075 85.8919 18.809 86.0241C18.8984 86.0423 18.9906 86.0424 19.08 86.0242C19.1694 86.0061 19.2542 85.9701 19.3294 85.9185C19.4803 85.8355 19.4953 85.7525 19.4803 85.7525Z" fill="#EB996E"/>
<path d="M52.921 153.137H106.551V155.754H52.921V153.137Z" fill="#455A64"/>
<path d="M69.4375 154.442L53.1246 183.97H38.5236L52.9209 155.755L69.4375 154.442Z" fill="#455A64"/>
<path d="M52.9207 155.755C52.9207 155.861 64.9423 156.011 79.762 156.087C94.5817 156.162 106.611 156.132 106.611 156.026C106.611 155.921 94.5967 155.77 79.7695 155.695C64.9423 155.619 52.9207 155.649 52.9207 155.755Z" fill="#455A64"/>
<path d="M40.0393 73.9772C39.5496 74.1566 39.0275 74.2298 38.5074 74.1921C37.9873 74.1544 37.4812 74.0066 37.0225 73.7584C37.1046 73.8488 37.1664 73.9556 37.204 74.0717C37.2416 74.1879 37.254 74.3107 37.2404 74.432C37.2269 74.5533 37.1877 74.6704 37.1254 74.7754C37.0631 74.8803 36.9792 74.9708 36.8792 75.0409C36.454 75.3056 35.9512 75.4173 35.4538 75.3577C32.7765 75.2518 30.2316 74.1643 28.3042 72.3024C28.2596 72.7674 28.0803 73.2093 27.7883 73.5738C27.4962 73.9383 27.1041 74.2096 26.6601 74.3544C25.7595 74.6223 24.8004 74.6223 23.8998 74.3544C24.2314 75.7149 24.2903 77.1277 24.0732 78.5112C23.9503 79.2017 23.6287 79.8415 23.1478 80.352C22.6669 80.8625 22.0476 81.2217 21.3657 81.3854C21.1937 82.0986 21.1352 82.8343 21.1923 83.5657C21.147 84.3201 20.7171 85.1348 19.9856 85.1575C19.254 85.1801 18.8543 84.5087 18.7714 83.8675C18.6884 83.2262 19.0655 81.9211 18.6054 80.8498C18.1454 79.7786 18.3038 79.9295 17.806 78.8054C17.3082 77.6813 17.0518 76.1197 16.6446 74.9503C16.2011 73.7892 16.1691 72.5111 16.5541 71.3292C16.7619 70.7494 17.142 70.247 17.6435 69.8897C18.1451 69.5323 18.7439 69.337 19.3596 69.33C19.1344 68.7473 19.0989 68.1083 19.2583 67.5043C19.4176 66.9002 19.7637 66.362 20.247 65.9663C20.7303 65.5707 21.3263 65.3379 21.9497 65.3011C22.5732 65.2644 23.1923 65.4255 23.7188 65.7617C23.7188 65.7617 27.9196 62.91 32.5578 64.4867C37.196 66.0634 37.8823 70.273 38.8929 70.4013C39.9035 70.5295 42.9655 68.8925 42.4451 69.9185C41.9247 70.9444 41.0423 71.978 40.6049 72.0233C40.1675 72.0685 44.1043 70.4013 42.7468 71.895C41.995 72.7658 41.0738 73.4742 40.0393 73.9772Z" fill="#68443A"/>
<path d="M3.06942 109.887C3.50066 109.368 3.98893 108.9 4.52498 108.491C6.04193 107.444 7.85662 106.915 9.69867 106.982C12.0291 106.982 14.7064 107.986 17.3234 109.593C19.9404 111.2 22.6027 113.365 25.9739 114.821C29.1284 116.235 32.7088 116.367 35.9593 115.19C37.3538 114.668 38.6551 113.924 39.8131 112.987C40.9142 112.143 41.872 111.29 42.8298 110.604C44.258 109.433 46.0059 108.72 47.8451 108.559C48.5186 108.542 49.1905 108.631 49.8362 108.823C49.8362 108.823 49.7985 108.823 49.7155 108.763C49.5968 108.704 49.4731 108.656 49.346 108.619C48.8573 108.47 48.3486 108.396 47.8376 108.401C45.9531 108.512 44.1489 109.202 42.6715 110.377C40.7332 111.713 38.7723 113.832 35.8461 114.843C32.6848 115.972 29.2094 115.834 26.1474 114.459C22.8817 113.048 20.212 110.853 17.5271 109.283C14.8422 107.714 12.1196 106.658 9.71375 106.703C7.81613 106.663 5.95886 107.254 4.43449 108.386C4.03069 108.695 3.66825 109.055 3.35601 109.457C3.25015 109.593 3.15437 109.737 3.06942 109.887Z" fill="#FAFAFA"/>
<path d="M16.494 129.72C16.494 129.72 16.856 129.479 17.5272 129.094C18.4681 128.553 19.485 128.156 20.5439 127.917C22.1294 127.566 23.7756 127.594 25.348 128C27.1204 128.445 28.9379 129.373 30.9591 130.12C32.8788 130.861 34.9443 131.145 36.9926 130.95C38.6513 130.803 40.2705 130.361 41.7741 129.645C42.7841 129.167 43.7253 128.556 44.5721 127.827C44.8738 127.578 45.0774 127.344 45.2283 127.201C45.3073 127.13 45.3759 127.049 45.4319 126.959C45.4319 126.959 45.0925 127.231 44.4741 127.714C43.6054 128.387 42.6582 128.951 41.6534 129.396C40.1704 130.063 38.5835 130.469 36.9624 130.595C34.9785 130.756 32.9838 130.47 31.1251 129.758C29.2792 128.95 27.3881 128.25 25.4612 127.661C23.8369 127.255 22.138 127.255 20.5137 127.661C19.4241 127.923 18.3864 128.367 17.4442 128.974C17.1798 129.136 16.9278 129.317 16.69 129.517C16.5618 129.63 16.4864 129.675 16.494 129.72Z" fill="#FAFAFA"/>
<path d="M10.551 142.402C11.0284 142.215 11.5171 142.059 12.0141 141.934C13.386 141.71 14.7922 141.838 16.1018 142.304C17.0156 142.603 17.9014 142.981 18.7489 143.435C19.6615 143.918 20.6193 144.492 21.6601 145.05C22.7413 145.665 23.8871 146.158 25.0765 146.521C26.3786 146.898 27.7524 146.955 29.0812 146.687C31.8113 146.091 33.9758 144.507 35.9669 143.322C37.6639 142.137 39.6133 141.362 41.661 141.059C43.0426 140.915 44.4343 141.214 45.6355 141.912C46.0574 142.198 46.4513 142.524 46.812 142.885C46.7482 142.767 46.6697 142.658 46.5782 142.56C46.3276 142.271 46.0383 142.017 45.7185 141.806C44.5049 141.034 43.0715 140.681 41.6383 140.803C39.5412 141.065 37.5359 141.82 35.7859 143.005C33.7647 144.197 31.6228 145.736 28.9983 146.295C27.7335 146.558 26.4236 146.509 25.1821 146.151C24.0182 145.8 22.8956 145.325 21.8335 144.733C20.7928 144.182 19.835 143.624 18.8922 143.141C18.0244 142.694 17.1183 142.325 16.1847 142.04C14.8301 141.578 13.3759 141.492 11.9764 141.791C11.6014 141.878 11.2389 142.012 10.8979 142.191C10.773 142.245 10.6562 142.316 10.551 142.402Z" fill="#FAFAFA"/>
<path d="M8.6276 156.834C8.74704 156.904 8.87687 156.955 9.01224 156.985C9.39178 157.101 9.78454 157.17 10.1812 157.188C11.6427 157.186 13.088 156.883 14.4273 156.298C15.3451 155.936 16.2846 155.631 17.2403 155.385C18.3427 155.15 19.4743 155.084 20.5965 155.189C22.9797 155.393 25.4911 156.291 28.1383 157.068C29.4482 157.46 30.7912 157.733 32.1505 157.882C33.423 158.009 34.7057 157.991 35.9742 157.83C38.1093 157.538 40.1995 156.98 42.1962 156.17C43.9007 155.498 45.2129 154.842 46.1406 154.382L47.2341 153.816C47.3567 153.755 47.4729 153.681 47.5811 153.597C47.4469 153.627 47.3175 153.676 47.1964 153.741L46.1255 154.231C45.1978 154.646 43.8629 155.265 42.1434 155.898C40.1577 156.658 38.0897 157.182 35.9818 157.46C34.7284 157.594 33.4642 157.594 32.2108 157.46C30.874 157.305 29.5539 157.03 28.2665 156.638C25.6042 155.883 23.0626 154.97 20.6115 154.782C19.4546 154.687 18.29 154.769 17.1574 155.023C16.1888 155.283 15.2389 155.608 14.3141 155.996C13.0109 156.591 11.6048 156.926 10.1737 156.985C9.65488 156.98 9.1375 156.93 8.6276 156.834Z" fill="#FAFAFA"/>
<path d="M0.897282 120.252C0.897282 120.252 1.02549 120.463 1.35733 120.742C1.82461 121.135 2.34834 121.456 2.91094 121.693C3.75343 122.046 4.65989 122.22 5.5732 122.206C6.6879 122.173 7.7809 121.889 8.77093 121.376C9.82679 120.871 10.7771 120.32 11.7047 119.988C12.5201 119.694 13.394 119.598 14.2538 119.709C14.8306 119.784 15.3772 120.01 15.8376 120.365C16.1544 120.629 16.2826 120.833 16.3127 120.81C16.2425 120.594 16.1147 120.401 15.9432 120.252C15.4869 119.824 14.9155 119.538 14.2991 119.43C13.3899 119.277 12.457 119.353 11.584 119.649C10.5514 120.045 9.54399 120.503 8.5673 121.022C7.63374 121.515 6.6047 121.8 5.55058 121.859C4.68 121.89 3.81163 121.752 2.9939 121.451C2.25336 121.129 1.5503 120.727 0.897282 120.252Z" fill="#FAFAFA"/>
<path d="M44.6926 119.867C44.6926 119.867 44.7454 119.995 44.9415 120.131C45.2266 120.306 45.5573 120.393 45.8917 120.38C46.3802 120.363 46.8569 120.226 47.2794 119.98C47.7546 119.716 48.2146 119.347 48.7048 119.03C49.5313 118.478 50.5423 118.275 51.5179 118.464C52.2721 118.6 52.6944 118.879 52.7246 118.819C52.4243 118.491 52.024 118.27 51.5858 118.193C51.0643 118.051 50.5183 118.022 49.9848 118.109C49.4513 118.196 48.9427 118.397 48.4937 118.698C47.9733 119.038 47.5358 119.407 47.0984 119.664C46.7295 119.9 46.3117 120.049 45.8766 120.101C45.4684 120.127 45.0603 120.046 44.6926 119.867Z" fill="#FAFAFA"/>
<path d="M65.1838 144.243L54.2105 142.922L46.4802 147.992L16.9087 140.908L16.0414 124.394L2.77536 124.062L3.08457 143.435C3.11583 144.918 3.43985 146.379 4.03799 147.735C4.63613 149.091 5.49657 150.316 6.56977 151.338C7.64297 152.361 8.90774 153.161 10.2912 153.692C11.6747 154.223 13.1497 154.476 14.6311 154.435L57.9362 153.235L59.7764 149.546L69.0679 149.29L65.1838 144.243Z" fill="#FFBE9D"/>
<path d="M17.2857 140.908C17.4652 140.976 17.6492 141.032 17.8363 141.074L19.4502 141.489C20.8832 141.851 22.8968 142.357 25.3856 142.998L44.9943 147.751L46.8195 148.188H46.8949L46.9552 148.143L54.678 143.066H54.5724L65.5533 144.333L65.4779 144.295L68.3513 147.992L69.1055 148.958C69.1937 149.072 69.2894 149.181 69.3921 149.282C69.3234 149.156 69.2453 149.035 69.1583 148.92L68.4041 147.917C67.7254 147.026 66.7751 145.759 65.5835 144.145V144.107H65.5382L54.5724 142.734H54.5121H54.4668L46.729 147.796H46.8647L45.0396 147.358L25.4309 142.704L19.4728 141.331L17.8212 140.991C17.6453 140.949 17.4662 140.921 17.2857 140.908Z" fill="#EB996E"/>
<path d="M59.1881 147.388C60.6017 147.558 62.0265 147.616 63.4493 147.562H64.2034L64.0979 147.524C64.9568 148.309 65.8801 149.021 66.8582 149.651C66.0863 148.78 65.2355 147.982 64.3166 147.268L64.2713 147.223H63.4266C62.0116 147.162 60.5941 147.218 59.1881 147.388Z" fill="#EB996E"/>
<path d="M11.8405 144.212C12.3992 143.322 13.1299 142.553 13.9899 141.949C14.9055 141.436 15.9122 141.105 16.9539 140.976C16.6462 140.87 16.3165 140.844 15.996 140.901C15.2179 140.977 14.4686 141.235 13.8089 141.655C13.1464 142.07 12.5888 142.633 12.1799 143.3C11.9841 143.566 11.8666 143.882 11.8405 144.212Z" fill="#EB996E"/>
</svg>
