<svg width="340" height="242" viewBox="0 0 340 242" fill="none" xmlns="http://www.w3.org/2000/svg">
<g clip-path="url(#clip0_48_1254)">
<path d="M340 35.9898C339.997 31.7996 339.031 27.6664 337.176 23.9107C335.321 20.155 332.628 16.8777 329.305 14.333C325.982 11.7883 322.119 10.0445 318.015 9.23693C313.911 8.42931 309.676 8.57955 305.639 9.67598C301.603 10.7724 297.872 12.7856 294.737 15.5594C291.603 18.3332 289.147 21.7931 287.563 25.6709C285.978 29.5486 285.306 33.7399 285.598 37.9199C285.891 42.0998 287.141 46.1561 289.251 49.7741L289.333 49.8786C290.376 51.6408 291.688 52.8654 293.007 54.7546L308.823 75.7371C309.281 76.3463 309.873 76.8406 310.554 77.181C311.235 77.5213 311.986 77.6985 312.747 77.6985C313.508 77.6985 314.259 77.5213 314.94 77.181C315.621 76.8406 316.214 76.3463 316.671 75.7371L332.241 55.0981C333.656 53.4301 334.977 51.6851 336.199 49.8711L336.251 49.7965C338.71 45.6127 340.005 40.845 340 35.9898ZM312.766 47.8699C310.394 47.8714 308.074 47.168 306.101 45.8488C304.128 44.5295 302.59 42.6536 301.681 40.4583C300.772 38.2631 300.534 35.8471 300.996 33.516C301.457 31.185 302.599 29.0435 304.276 27.3625C305.953 25.6815 308.09 24.5364 310.416 24.0722C312.742 23.6081 315.154 23.8455 317.346 24.7547C319.538 25.6638 321.411 27.2037 322.729 29.1797C324.047 31.1556 324.751 33.4788 324.751 35.8554C324.751 39.0406 323.488 42.0954 321.241 44.3483C318.993 46.6013 315.945 47.868 312.766 47.8699Z" fill="#F5F5F5"/>
<path d="M311.555 36.8595H20.2439V55.5571H311.555V36.8595Z" fill="#E0E0E0"/>
<path d="M311.518 72.7311H20.2065V236.41H311.518V72.7311Z" fill="white"/>
<path d="M20.2437 55.4224H60.2454L64.2105 43.8558H129.047L133.012 55.4224H311.562V73.1268H20.2437V55.4224Z" fill="#EBEBEB"/>
<path d="M29.8586 44.3188C29.8586 44.7533 29.7299 45.178 29.4888 45.5392C29.2477 45.9004 28.905 46.1817 28.5042 46.3477C28.1033 46.5136 27.6624 46.5566 27.2371 46.4713C26.8118 46.386 26.4214 46.1762 26.1152 45.8684C25.8091 45.5607 25.601 45.1688 25.5173 44.7424C25.4336 44.3161 25.478 43.8745 25.645 43.4734C25.812 43.0724 26.094 42.7301 26.4554 42.4898C26.8167 42.2494 27.2411 42.1219 27.6748 42.1234C27.9622 42.1234 28.2468 42.1803 28.5122 42.2907C28.7777 42.4011 29.0187 42.5629 29.2216 42.7669C29.4245 42.9708 29.5852 43.2129 29.6945 43.4792C29.8038 43.7455 29.8596 44.0308 29.8586 44.3188Z" fill="#263238"/>
<path d="M36.6335 44.3188C36.6335 44.7533 36.5048 45.178 36.2637 45.5392C36.0226 45.9004 35.6799 46.1817 35.2791 46.3477C34.8782 46.5136 34.4373 46.5566 34.012 46.4713C33.5867 46.386 33.1963 46.1762 32.8901 45.8684C32.584 45.5607 32.3759 45.1688 32.2922 44.7424C32.2085 44.3161 32.2529 43.8745 32.4199 43.4734C32.5869 43.0724 32.8689 42.7301 33.2303 42.4898C33.5916 42.2494 34.016 42.1219 34.4497 42.1234C34.7371 42.1234 35.0217 42.1803 35.2871 42.2907C35.5526 42.4011 35.7936 42.5629 35.9965 42.7669C36.1994 42.9708 36.3601 43.2129 36.4694 43.4792C36.5787 43.7455 36.6345 44.0308 36.6335 44.3188Z" fill="#263238"/>
<path d="M43.4087 44.3188C43.4086 44.7533 43.2799 45.178 43.0388 45.5392C42.7977 45.9004 42.4551 46.1817 42.0542 46.3477C41.6534 46.5136 41.2124 46.5566 40.7871 46.4713C40.3619 46.386 39.9714 46.1762 39.6653 45.8684C39.3591 45.5607 39.151 45.1688 39.0673 44.7424C38.9836 44.3161 39.0281 43.8745 39.1951 43.4734C39.3621 43.0724 39.6441 42.7301 40.0054 42.4898C40.3667 42.2494 40.7911 42.1219 41.2248 42.1234C41.5123 42.1234 41.7968 42.1803 42.0623 42.2907C42.3277 42.4011 42.5688 42.5629 42.7717 42.7669C42.9746 42.9708 43.1353 43.2129 43.2446 43.4792C43.3539 43.7455 43.4096 44.0308 43.4087 44.3188Z" fill="#263238"/>
<path d="M279.357 69.6024H79.4974C78.0267 69.6024 76.6162 69.0171 75.5763 67.9752C74.5364 66.9333 73.9521 65.5203 73.9521 64.0468C73.9521 62.5734 74.5364 61.1604 75.5763 60.1185C76.6162 59.0766 78.0267 58.4913 79.4974 58.4913H279.357C280.828 58.4913 282.24 59.0764 283.281 60.118C284.322 61.1597 284.908 62.5727 284.91 64.0468C284.908 65.5209 284.322 66.934 283.281 67.9756C282.24 69.0173 280.828 69.6024 279.357 69.6024Z" fill="#FAFAFA"/>
<path d="M84.2825 64.7862V66.6679H83.3359V64.9654C83.3359 64.4352 83.0899 64.2187 82.6725 64.2187C82.2552 64.2187 81.9272 64.5024 81.9272 65.0998V66.7276H80.9136V62.1428H81.8676V63.7258C82.0062 63.5958 82.169 63.4946 82.3469 63.4279C82.5247 63.3613 82.7139 63.3306 82.9036 63.3376C83.0946 63.3214 83.2868 63.3483 83.4661 63.4164C83.6453 63.4845 83.8071 63.592 83.9394 63.731C84.0717 63.87 84.1712 64.0369 84.2305 64.2195C84.2899 64.4021 84.3077 64.5958 84.2825 64.7862Z" fill="#E0E0E0"/>
<path d="M87.2563 66.5035C87.0334 66.6442 86.7745 66.7169 86.511 66.7126C86.3496 66.7361 86.1849 66.7225 86.0295 66.6727C85.8742 66.6229 85.7321 66.5383 85.6143 66.4252C85.4965 66.3122 85.4059 66.1738 85.3495 66.0204C85.293 65.8671 85.2723 65.7029 85.2887 65.5403V64.2186H84.7819V63.4719H85.2887V62.658H86.2352V63.4719H87.0551V64.2186H86.2352V65.5552C86.2286 65.6118 86.2344 65.6691 86.2523 65.7232C86.2702 65.7772 86.2998 65.8267 86.3389 65.868C86.378 65.9093 86.4257 65.9415 86.4787 65.9623C86.5316 65.9831 86.5884 65.992 86.6452 65.9883C86.7813 65.9899 86.9145 65.9481 87.0253 65.8688L87.2563 66.5035Z" fill="#E0E0E0"/>
<path d="M89.8575 66.5035C89.6352 66.6455 89.3758 66.7182 89.1122 66.7126C88.951 66.7346 88.787 66.7199 88.6323 66.6696C88.4776 66.6193 88.3362 66.5346 88.2187 66.4219C88.1012 66.3092 88.0106 66.1714 87.9536 66.0188C87.8967 65.8661 87.8749 65.7025 87.8899 65.5403V64.2186H87.3905V63.4719H87.8899V62.658H88.8439V63.4719H89.6563V64.2186H88.8439V65.5552C88.836 65.6113 88.8407 65.6686 88.8577 65.7226C88.8747 65.7767 88.9035 65.8264 88.9421 65.8679C88.9807 65.9094 89.028 65.9417 89.0806 65.9625C89.1333 65.9834 89.1899 65.9922 89.2464 65.9883C89.3847 65.989 89.5199 65.9473 89.6339 65.8688L89.8575 66.5035Z" fill="#E0E0E0"/>
<path d="M93.9269 65.025C93.9404 65.2451 93.9081 65.4656 93.832 65.6725C93.756 65.8793 93.6378 66.0681 93.485 66.2268C93.3322 66.3855 93.1481 66.5106 92.9445 66.5942C92.7409 66.6779 92.5221 66.7182 92.3021 66.7126C92.1182 66.7218 91.9345 66.6912 91.7634 66.623C91.5924 66.5547 91.438 66.4502 91.3108 66.3168V67.8102H90.3643V63.33H91.2736V63.7108C91.4021 63.567 91.5613 63.454 91.7393 63.3804C91.9174 63.3067 92.1098 63.2741 92.3021 63.2852C92.5269 63.2789 92.7504 63.3205 92.9579 63.4073C93.1654 63.494 93.3521 63.6239 93.5057 63.7884C93.6593 63.9529 93.7763 64.1482 93.8489 64.3614C93.9215 64.5746 93.9481 64.8008 93.9269 65.025ZM92.9655 65.025C92.951 64.8633 92.8898 64.7092 92.7894 64.5817C92.689 64.4542 92.5537 64.3588 92.4001 64.307C92.2465 64.2552 92.0811 64.2494 91.9242 64.2902C91.7673 64.3311 91.6257 64.4168 91.5166 64.5369C91.4075 64.657 91.3357 64.8063 91.3099 64.9667C91.2841 65.127 91.3055 65.2914 91.3714 65.4398C91.4373 65.5881 91.5449 65.7141 91.6811 65.8022C91.8172 65.8903 91.976 65.9368 92.1381 65.936C92.254 65.9366 92.3688 65.9127 92.4749 65.866C92.581 65.8194 92.6762 65.7508 92.7541 65.665C92.8321 65.5791 92.8913 65.4777 92.9277 65.3675C92.9641 65.2572 92.9769 65.1406 92.9655 65.025Z" fill="#E0E0E0"/>
<path d="M94.3295 63.9274C94.3285 63.8493 94.3433 63.7719 94.3731 63.6997C94.4028 63.6276 94.447 63.5623 94.5027 63.5078C94.5585 63.4533 94.6248 63.4107 94.6976 63.3827C94.7703 63.3548 94.8479 63.3419 94.9258 63.3449C95.0033 63.3418 95.0806 63.3547 95.153 63.3828C95.2253 63.4109 95.2911 63.4535 95.3463 63.5082C95.4016 63.5628 95.445 63.6281 95.4739 63.7003C95.5029 63.7724 95.5167 63.8497 95.5146 63.9274C95.5166 64.0057 95.5028 64.0837 95.474 64.1566C95.4453 64.2295 95.4021 64.2958 95.3471 64.3516C95.2921 64.4074 95.2265 64.4515 95.1541 64.4812C95.0817 64.511 95.004 64.5258 94.9258 64.5247C94.8469 64.5268 94.7685 64.5127 94.6952 64.4834C94.622 64.4542 94.5554 64.4102 94.4996 64.3543C94.4438 64.2985 94.4 64.2318 94.3708 64.1584C94.3415 64.085 94.3275 64.0064 94.3295 63.9274ZM94.3295 66.1152C94.3285 66.0372 94.3433 65.9597 94.3731 65.8876C94.4028 65.8154 94.447 65.7501 94.5027 65.6956C94.5585 65.6411 94.6248 65.5986 94.6976 65.5706C94.7703 65.5426 94.8479 65.5297 94.9258 65.5328C95.0033 65.5297 95.0806 65.5426 95.153 65.5707C95.2253 65.5987 95.2911 65.6414 95.3463 65.696C95.4016 65.7506 95.445 65.816 95.4739 65.8881C95.5029 65.9602 95.5167 66.0375 95.5146 66.1152C95.5166 66.1936 95.5028 66.2716 95.474 66.3445C95.4453 66.4173 95.4021 66.4837 95.3471 66.5395C95.2921 66.5952 95.2265 66.6393 95.1541 66.6691C95.0817 66.6988 95.004 66.7136 94.9258 66.7126C94.8469 66.7146 94.7685 66.7006 94.6952 66.6713C94.622 66.642 94.5554 66.5981 94.4996 66.5422C94.4438 66.4863 94.4 66.4196 94.3708 66.3462C94.3415 66.2728 94.3275 66.1942 94.3295 66.1152Z" fill="#E0E0E0"/>
<path d="M97.8474 61.5305H98.697L96.6847 67.2727H95.8201L97.8474 61.5305Z" fill="#E0E0E0"/>
<path d="M99.7927 61.5305H100.635L98.6299 67.2727H97.7803L99.7927 61.5305Z" fill="#E0E0E0"/>
<path d="M279.171 102.166H105.055C103.763 102.167 102.484 101.913 101.29 101.419C100.097 100.924 99.0121 100.199 98.0985 99.2842C97.1848 98.3696 96.46 97.2835 95.9655 96.088C95.471 94.8926 95.2164 93.6113 95.2164 92.3172C95.2184 89.7044 96.2558 87.1993 98.1006 85.3524C99.9455 83.5056 102.447 82.4681 105.055 82.4681H279.171C281.778 82.4681 284.279 83.5058 286.122 85.3529C287.966 87.1999 289.002 89.7051 289.002 92.3172C289.003 93.6109 288.749 94.8921 288.255 96.0875C287.762 97.2829 287.038 98.369 286.124 99.2838C285.211 100.199 284.127 100.924 282.934 101.419C281.741 101.913 280.462 102.167 279.171 102.166Z" fill="#FAFAFA"/>
<path d="M279.171 102.166C280.56 102.136 281.929 101.827 283.196 101.255C284.728 100.556 286.053 99.4701 287.042 98.1044C287.814 97.0658 288.371 95.883 288.679 94.6256C288.988 93.3682 289.043 92.0615 288.84 90.7826C288.637 89.5037 288.181 88.2784 287.499 87.1788C286.816 86.0791 285.921 85.1275 284.865 84.3798C283.546 83.4255 282.008 82.8195 280.393 82.6176C279.528 82.5473 278.66 82.5224 277.792 82.5429H275.072H250.043L105.092 82.5952C102.941 82.5979 100.852 83.3213 99.1577 84.6503C97.4638 85.9792 96.2621 87.8375 95.7437 89.9295C95.2253 92.0215 95.42 94.2271 96.2969 96.1955C97.1737 98.1639 98.6823 99.782 100.583 100.793C102.076 101.567 103.739 101.952 105.42 101.913H153.956L219.12 101.957L263.057 102.017L274.982 102.054H263.057L219.12 102.122L153.956 102.159H115.474H105.39C103.647 102.204 101.92 101.803 100.374 100.994C98.4011 99.9413 96.8356 98.2585 95.926 96.2127C95.0164 94.1669 94.8149 91.8754 95.3535 89.7018C95.892 87.5282 97.1397 85.5971 98.8986 84.2149C100.658 82.8328 102.827 82.0787 105.062 82.0725L250.014 82.1322H275.042H277.762C278.638 82.1108 279.513 82.1382 280.386 82.2144C281.971 82.4163 283.485 82.9964 284.8 83.906C286.115 84.8155 287.193 86.0279 287.943 87.4413C288.584 88.6691 288.962 90.0168 289.054 91.3989C289.132 92.6347 288.986 93.8745 288.622 95.0578C288.284 96.0907 287.78 97.0616 287.131 97.9326C286.124 99.3092 284.775 100.398 283.218 101.091C282.271 101.508 281.265 101.778 280.237 101.89C279.536 102.166 279.171 102.166 279.171 102.166Z" fill="#263238"/>
<path d="M109.042 94.4155L109.415 93.5942C109.873 93.9119 110.416 94.0836 110.973 94.087C111.621 94.087 111.882 93.8705 111.882 93.5792C111.882 92.6906 109.139 93.3029 109.139 91.5407C109.139 90.7343 109.788 90.0473 111.129 90.0473C111.705 90.0343 112.272 90.1817 112.769 90.4729L112.433 91.3018C112.035 91.0681 111.583 90.9396 111.122 90.9284C110.473 90.9284 110.22 91.1748 110.22 91.4735C110.22 92.3472 112.97 91.7423 112.97 93.4822C112.97 94.2737 112.314 94.9756 110.965 94.9756C110.282 94.9904 109.611 94.7949 109.042 94.4155Z" fill="#E0E0E0"/>
<path d="M117.189 93.3402H114.453C114.508 93.5699 114.644 93.772 114.836 93.9093C115.027 94.0465 115.262 94.1096 115.497 94.087C115.664 94.0932 115.831 94.0653 115.987 94.0049C116.144 93.9446 116.286 93.8531 116.406 93.736L116.972 94.3408C116.781 94.5412 116.549 94.6977 116.292 94.7995C116.034 94.9013 115.758 94.9461 115.482 94.9307C115.22 94.9568 114.956 94.9277 114.706 94.8454C114.457 94.7632 114.227 94.6295 114.032 94.453C113.837 94.2765 113.681 94.0611 113.573 93.8206C113.466 93.5801 113.411 93.3198 113.41 93.0565C113.406 92.8037 113.455 92.5529 113.552 92.3195C113.649 92.0862 113.793 91.8752 113.974 91.6996C114.156 91.524 114.371 91.3875 114.608 91.2986C114.844 91.2096 115.096 91.17 115.348 91.1823C115.599 91.1695 115.85 91.2095 116.085 91.2999C116.32 91.3902 116.534 91.5287 116.712 91.7067C116.89 91.8846 117.029 92.098 117.121 92.333C117.212 92.568 117.253 92.8196 117.241 93.0714C117.211 93.161 117.196 93.273 117.189 93.3402ZM114.431 92.7205H116.22C116.19 92.5068 116.082 92.3118 115.917 92.1737C115.751 92.0356 115.54 91.9643 115.325 91.9738C115.11 91.9688 114.901 92.0452 114.739 92.1877C114.578 92.3302 114.476 92.5284 114.453 92.7429L114.431 92.7205Z" fill="#E0E0E0"/>
<path d="M121.027 92.8027V94.886H120.043V94.4305C119.92 94.6069 119.753 94.7471 119.557 94.8364C119.362 94.9257 119.146 94.9609 118.933 94.9383C118.083 94.9383 117.576 94.4678 117.576 93.8331C117.576 93.1984 118.031 92.7429 119.141 92.7429H119.976C119.976 92.2949 119.708 91.9962 119.141 91.9962C118.763 91.9908 118.393 92.1116 118.091 92.3397L117.71 91.593C118.18 91.2943 118.727 91.141 119.283 91.1525C120.416 91.1898 121.027 91.705 121.027 92.8027ZM119.976 93.7361V93.3403H119.231C118.739 93.3403 118.582 93.5195 118.582 93.7659C118.582 94.0124 118.806 94.2065 119.179 94.2065C119.345 94.2296 119.514 94.1957 119.659 94.1103C119.804 94.0249 119.916 93.893 119.976 93.7361Z" fill="#E0E0E0"/>
<path d="M124.24 91.1898V92.1605H124.001C123.867 92.1492 123.733 92.1681 123.607 92.2159C123.482 92.2637 123.369 92.3392 123.277 92.4367C123.184 92.5342 123.115 92.6513 123.074 92.7793C123.033 92.9073 123.021 93.0429 123.04 93.176V94.8935H121.981V91.2495H122.995V91.7274C123.145 91.5456 123.336 91.4021 123.553 91.3087C123.769 91.2152 124.004 91.1745 124.24 91.1898Z" fill="#E0E0E0"/>
<path d="M124.567 93.064C124.568 92.8044 124.621 92.5477 124.725 92.31C124.829 92.0723 124.981 91.8587 125.172 91.6827C125.362 91.5066 125.587 91.372 125.832 91.2872C126.077 91.2023 126.336 91.1692 126.595 91.1898C126.927 91.1631 127.26 91.2371 127.549 91.4022C127.839 91.5673 128.073 91.8159 128.219 92.1157L127.407 92.5562C127.317 92.4143 127.191 92.2985 127.042 92.22C126.893 92.1416 126.727 92.1032 126.559 92.1088C126.391 92.1143 126.227 92.1635 126.084 92.2516C125.941 92.3397 125.823 92.4636 125.742 92.6111C125.661 92.7587 125.619 92.9248 125.622 93.0932C125.624 93.2616 125.67 93.4264 125.756 93.5715C125.841 93.7167 125.963 93.837 126.108 93.9209C126.254 94.0047 126.419 94.0491 126.587 94.0497C126.757 94.0512 126.924 94.0052 127.068 93.9167C127.213 93.8283 127.331 93.7011 127.407 93.5494L128.219 93.9974C128.07 94.2945 127.836 94.5404 127.546 94.7039C127.257 94.8674 126.926 94.9412 126.595 94.9159C126.338 94.9363 126.08 94.9038 125.837 94.8203C125.594 94.7369 125.37 94.6042 125.18 94.4306C124.99 94.257 124.837 94.0461 124.732 93.811C124.627 93.5759 124.571 93.3217 124.567 93.064Z" fill="#E0E0E0"/>
<path d="M132.52 92.8026V94.886H131.469V92.9594C131.469 92.3695 131.193 92.1007 130.724 92.1007C130.254 92.1007 129.852 92.4143 129.852 93.0864V94.886H128.801V89.8606H129.852V91.6228C130.006 91.4774 130.188 91.3642 130.386 91.2899C130.584 91.2155 130.795 91.1815 131.007 91.1897C131.218 91.1745 131.43 91.2066 131.627 91.2838C131.824 91.3609 132.002 91.4811 132.147 91.6356C132.292 91.79 132.4 91.975 132.465 92.1769C132.529 92.3787 132.548 92.5925 132.52 92.8026Z" fill="#E0E0E0"/>
<path d="M135.129 94.2737C135.129 94.0994 135.198 93.9323 135.321 93.809C135.444 93.6858 135.611 93.6166 135.785 93.6166C135.958 93.6166 136.125 93.6858 136.248 93.809C136.371 93.9323 136.44 94.0994 136.44 94.2737C136.44 94.448 136.371 94.6151 136.248 94.7383C136.125 94.8616 135.958 94.9308 135.785 94.9308C135.611 94.9308 135.444 94.8616 135.321 94.7383C135.198 94.6151 135.129 94.448 135.129 94.2737Z" fill="#E0E0E0"/>
<path d="M136.903 94.2737C136.903 94.0994 136.972 93.9323 137.095 93.809C137.218 93.6858 137.385 93.6166 137.558 93.6166C137.732 93.6166 137.899 93.6858 138.022 93.809C138.145 93.9323 138.214 94.0994 138.214 94.2737C138.214 94.448 138.145 94.6151 138.022 94.7383C137.899 94.8616 137.732 94.9308 137.558 94.9308C137.385 94.9308 137.218 94.8616 137.095 94.7383C136.972 94.6151 136.903 94.448 136.903 94.2737Z" fill="#E0E0E0"/>
<path d="M138.676 94.2737C138.694 94.1124 138.77 93.9633 138.89 93.8549C139.011 93.7465 139.167 93.6865 139.329 93.6865C139.49 93.6865 139.647 93.7465 139.767 93.8549C139.887 93.9633 139.964 94.1124 139.981 94.2737C139.991 94.3653 139.981 94.4581 139.953 94.5458C139.924 94.6335 139.878 94.7143 139.816 94.7828C139.755 94.8514 139.68 94.9063 139.596 94.9438C139.512 94.9813 139.421 95.0007 139.329 95.0007C139.237 95.0007 139.146 94.9813 139.062 94.9438C138.978 94.9063 138.902 94.8514 138.841 94.7828C138.779 94.7143 138.733 94.6335 138.705 94.5458C138.676 94.4581 138.667 94.3653 138.676 94.2737Z" fill="#E0E0E0"/>
<path d="M74.9511 119.311C74.9511 119.423 67.9674 119.505 59.344 119.505C50.7205 119.505 43.7368 119.423 43.7368 119.311C43.7368 119.199 50.7205 119.117 59.344 119.117C67.9674 119.117 74.9511 119.206 74.9511 119.311Z" fill="black"/>
<path d="M72.1657 128.249H47.729C45.5199 128.249 43.729 130.04 43.729 132.249V156.746C43.729 158.955 45.5199 160.746 47.729 160.746H72.1657C74.3748 160.746 76.1657 158.955 76.1657 156.746V132.249C76.1657 130.04 74.3748 128.249 72.1657 128.249Z" fill="#FF725E"/>
<path d="M273.268 135.903C273.268 136.008 233.02 136.097 183.344 136.097C133.668 136.097 93.4202 136.008 93.4202 135.903C93.4202 135.798 133.668 135.709 183.344 135.709C233.02 135.709 273.268 135.798 273.268 135.903Z" fill="black"/>
<path d="M142.612 148.142C142.612 148.254 131.998 148.336 118.918 148.336C105.837 148.336 95.2164 148.254 95.2164 148.142C95.2164 148.029 105.83 147.947 118.918 147.947C132.006 147.947 142.612 148.037 142.612 148.142Z" fill="black"/>
<path d="M244.521 159.492C244.521 159.596 211.093 159.686 169.876 159.686C128.659 159.686 95.2164 159.596 95.2164 159.492C95.2164 159.387 128.637 159.297 169.876 159.297C211.115 159.297 244.521 159.379 244.521 159.492Z" fill="#E0E0E0"/>
<path d="M74.9511 177.517C74.9511 177.622 67.9674 177.712 59.344 177.712C50.7205 177.712 43.7368 177.622 43.7368 177.517C43.7368 177.412 50.7205 177.323 59.344 177.323C67.9674 177.323 74.9511 177.412 74.9511 177.517Z" fill="black"/>
<path d="M72.1657 186.455H47.729C45.5199 186.455 43.729 188.246 43.729 190.455V214.952C43.729 217.161 45.5199 218.952 47.729 218.952H72.1657C74.3748 218.952 76.1657 217.161 76.1657 214.952V190.455C76.1657 188.246 74.3748 186.455 72.1657 186.455Z" fill="#FF725E"/>
<path d="M283.948 194.146C283.948 194.258 241.293 194.348 188.688 194.348C136.083 194.348 93.4202 194.258 93.4202 194.146C93.4202 194.034 136.068 193.952 188.688 193.952C241.308 193.952 283.948 194.004 283.948 194.146Z" fill="black"/>
<path d="M142.612 206.348C142.612 206.452 131.998 206.542 118.918 206.542C105.837 206.542 95.2164 206.452 95.2164 206.348C95.2164 206.243 105.83 206.153 118.918 206.153C132.006 206.153 142.612 206.243 142.612 206.348Z" fill="black"/>
<path d="M270.525 217.69C270.525 217.802 231.276 217.885 182.874 217.885C134.473 217.885 95.2164 217.802 95.2164 217.69C95.2164 217.578 134.458 217.496 182.874 217.496C231.291 217.496 270.525 217.585 270.525 217.69Z" fill="#E0E0E0"/>
<path d="M311.563 236.806C311.563 235.521 311.496 158.55 311.406 36.8592L311.563 37.016L20.2737 37.0608L20.4675 36.8592C20.4675 108.23 20.4675 176.038 20.4675 236.806L20.2886 236.626L311.607 236.806L20.2886 236.977H20.1172V236.806C20.1172 176.038 20.1172 108.23 20.1172 36.8592V36.665H20.3408L311.63 36.7098H311.786V36.8592C311.622 158.55 311.563 235.521 311.563 236.806Z" fill="#263238"/>
<path d="M121.161 51.3456C121.161 51.4578 110.876 51.54 98.1904 51.54C85.5049 51.54 75.2119 51.4578 75.2119 51.3456C75.2119 51.2335 85.4974 51.1512 98.1904 51.1512C110.883 51.1512 121.161 51.241 121.161 51.3456Z" fill="black"/>
<path d="M75.736 88.0984H42.9368C40.7276 88.0984 38.9368 89.8893 38.9368 92.0984V96.4116C38.9368 98.6208 40.7276 100.412 42.9368 100.412H75.736C77.9452 100.412 79.736 98.6208 79.736 96.4116V92.0984C79.736 89.8892 77.9451 88.0984 75.736 88.0984Z" fill="#455A64"/>
<path d="M151.981 120.349C151.981 120.461 139.31 120.543 123.658 120.543C108.006 120.543 95.3357 120.461 95.3357 120.349C95.3357 120.237 108.006 120.155 123.658 120.155C139.31 120.155 151.981 120.222 151.981 120.349Z" fill="#FF725E"/>
<path d="M151.981 177.517C151.981 177.622 139.31 177.712 123.658 177.712C108.006 177.712 95.3357 177.622 95.3357 177.517C95.3357 177.412 108.006 177.323 123.658 177.323C139.31 177.323 151.981 177.412 151.981 177.517Z" fill="#FF725E"/>
<path d="M275.444 95.5804C274.506 95.5804 273.59 95.3017 272.81 94.7795C272.03 94.2574 271.423 93.5152 271.064 92.647C270.705 91.7788 270.612 90.8235 270.795 89.9021C270.979 88.9807 271.431 88.1345 272.095 87.4706C272.759 86.8067 273.604 86.355 274.524 86.1726C275.444 85.9902 276.397 86.0853 277.263 86.4459C278.129 86.8065 278.869 87.4164 279.389 88.1983C279.909 88.9803 280.186 89.8992 280.184 90.8388C280.182 92.0971 279.682 93.3031 278.793 94.1921C277.905 95.0811 276.7 95.5804 275.444 95.5804ZM275.444 86.8365C274.654 86.8365 273.882 87.0712 273.225 87.511C272.568 87.9508 272.056 88.5758 271.753 89.3072C271.451 90.0385 271.372 90.8433 271.526 91.6196C271.68 92.396 272.061 93.1092 272.619 93.6689C273.178 94.2287 273.89 94.6098 274.665 94.7643C275.44 94.9187 276.243 94.8395 276.973 94.5365C277.703 94.2336 278.327 93.7206 278.766 93.0624C279.205 92.4042 279.439 91.6304 279.439 90.8388C279.435 89.7799 279.013 88.7657 278.264 88.0184C277.515 87.271 276.501 86.8514 275.444 86.8514V86.8365Z" fill="#FF725E"/>
<path d="M281.25 97.7011C281.153 97.7017 281.059 97.6641 280.989 97.5965L277.904 94.5201C277.869 94.486 277.842 94.4454 277.823 94.4005C277.804 94.3556 277.794 94.3074 277.794 94.2588C277.794 94.2101 277.804 94.1619 277.823 94.117C277.842 94.0721 277.869 94.0315 277.904 93.9974C277.938 93.9624 277.98 93.9346 278.025 93.9157C278.07 93.8967 278.119 93.887 278.168 93.887C278.218 93.887 278.266 93.8967 278.312 93.9157C278.357 93.9346 278.398 93.9624 278.433 93.9974L281.519 97.0738C281.554 97.1074 281.583 97.1478 281.602 97.1928C281.622 97.2377 281.632 97.2862 281.632 97.3352C281.632 97.3842 281.622 97.4326 281.602 97.4776C281.583 97.5225 281.554 97.563 281.519 97.5965C281.484 97.632 281.442 97.6597 281.396 97.6777C281.349 97.6957 281.3 97.7037 281.25 97.7011Z" fill="#FF725E"/>
<path d="M202.998 147.305C202.998 147.41 190.797 147.5 175.742 147.5C160.686 147.5 148.485 147.41 148.485 147.305C148.485 147.201 160.664 147.103 175.742 147.103C190.82 147.103 202.998 147.193 202.998 147.305Z" fill="black"/>
<path d="M238.23 146.461C238.23 146.574 231.842 146.656 223.972 146.656C216.101 146.656 209.714 146.574 209.714 146.461C209.714 146.349 216.094 146.267 223.972 146.267C231.85 146.267 238.23 146.357 238.23 146.461Z" fill="black"/>
<path d="M202.745 206.348C202.745 206.452 190.537 206.542 175.481 206.542C160.425 206.542 148.224 206.452 148.224 206.348C148.224 206.243 160.425 206.153 175.481 206.153C190.537 206.153 202.745 206.243 202.745 206.348Z" fill="black"/>
<path d="M68.4843 74.5381C73.8958 71.9435 78.6193 68.1053 82.2702 63.3359C85.9211 58.5666 88.3962 53.0009 89.4941 47.092C90.592 41.1831 90.2816 35.0979 88.5883 29.3319C86.8949 23.5659 83.8664 18.282 79.7493 13.9103C75.6321 9.53863 70.5428 6.20276 64.8955 4.17426C59.2482 2.14575 53.2026 1.48195 47.2508 2.23688C41.299 2.9918 35.6093 5.14413 30.6448 8.51864C25.6802 11.8932 21.5813 16.3945 18.6815 21.6562C14.7825 28.7362 13.2288 36.8741 14.2446 44.896C15.2604 52.9179 18.7932 60.4092 24.3335 66.2895C29.8738 72.1698 37.1352 76.1352 45.0703 77.6137C53.0055 79.0922 61.2043 78.0074 68.4843 74.5157V74.5381ZM36.7259 7.97645C44.3717 4.32002 53.0697 3.52046 61.252 5.72192C69.4342 7.92338 76.5622 12.981 81.3508 19.983C86.1395 26.9849 88.2737 35.4705 87.3687 43.9098C86.4637 52.3491 82.5791 60.1868 76.4151 66.0099C70.2511 71.833 62.2135 75.2583 53.7512 75.6682C45.2889 76.0782 36.9589 73.4458 30.2629 68.2457C23.5669 63.0456 18.9455 55.62 17.232 47.3075C15.5185 38.9951 16.8256 30.3428 20.9175 22.9106C24.5023 16.4018 30.03 11.1798 36.7259 7.97645Z" fill="#445158"/>
<path d="M4.20724 116.272C5.27728 116.931 6.56441 117.138 7.78674 116.848C9.00908 116.559 10.067 115.796 10.7289 114.726L35.6228 74.2694C35.7253 74.0883 35.7553 73.8751 35.7069 73.6727C35.6585 73.4704 35.5352 73.294 35.3619 73.1792L30.0403 69.8936C29.8605 69.7832 29.6448 69.7472 29.439 69.7932C29.2331 69.8392 29.0532 69.9636 28.9372 70.1401L2.71659 109.604C2.36633 110.136 2.12671 110.734 2.01202 111.361C1.89733 111.988 1.90993 112.632 2.04905 113.255C2.18817 113.877 2.45095 114.465 2.82174 114.983C3.19254 115.502 3.66374 115.94 4.20724 116.272Z" fill="#445158"/>
<path d="M67.5602 72.6116C72.975 70.0186 77.7018 66.1808 81.3556 61.4108C85.0093 56.6408 87.4867 51.0736 88.5858 45.1626C89.6849 39.2516 89.3748 33.1641 87.6805 27.396C85.9863 21.6279 82.956 16.3423 78.8364 11.9699C74.7168 7.59742 69.6245 4.2618 63.9743 2.23472C58.3241 0.207637 52.2758 -0.453556 46.3222 0.305001C40.3686 1.06356 34.6781 3.22041 29.7142 6.59985C24.7503 9.97928 20.6535 14.4857 17.7574 19.752C13.8583 26.8321 12.3047 34.9699 13.3205 42.9918C14.3363 51.0137 17.8691 58.5051 23.4094 64.3854C28.9497 70.2657 36.211 74.231 44.1462 75.7095C52.0814 77.188 60.2802 76.1032 67.5602 72.6116ZM35.8093 6.04991C43.455 2.39348 52.1531 1.59391 60.3353 3.79537C68.5175 5.99683 75.6455 11.0545 80.4342 18.0564C85.2228 25.0584 87.3571 33.5439 86.4521 41.9832C85.5471 50.4225 81.6624 58.2602 75.4984 64.0833C69.3345 69.9064 61.2968 73.3317 52.8346 73.7417C44.3723 74.1516 36.0422 71.5192 29.3462 66.3192C22.6502 61.1191 18.0289 53.6934 16.3154 45.381C14.6018 37.0685 15.9089 28.4163 20.0009 20.9841C23.5856 14.4752 29.1133 9.25323 35.8093 6.04991Z" fill="#617B87"/>
<path d="M35.1324 71.6436L28.4528 67.5154L1.95674 110.546C1.43782 111.389 1.2743 112.404 1.50218 113.367C1.73005 114.331 2.33066 115.164 3.17185 115.684L3.55878 115.923C4.39997 116.443 5.41283 116.607 6.37457 116.378C7.3363 116.15 8.16814 115.548 8.68706 114.706L35.1831 71.6749L35.1324 71.6436Z" fill="#617B87"/>
<path d="M79.5898 29.1232C79.5498 28.7252 79.48 28.3308 79.3811 27.9434C79.2936 27.4826 79.1741 27.0285 79.0234 26.5843C78.8575 25.9847 78.661 25.394 78.4346 24.8146C78.3004 24.4936 78.1737 24.1575 78.0321 23.8066C77.8905 23.4556 77.7042 23.1121 77.5327 22.7463C77.1973 21.9996 76.7427 21.2528 76.288 20.4613C74.2008 17.0762 71.4032 14.1868 68.0894 11.9936C67.3068 11.5158 66.5988 11.0379 65.8534 10.6869C65.4882 10.5002 65.1528 10.3061 64.8025 10.1567L63.8112 9.72365C63.2398 9.47715 62.655 9.26276 62.0597 9.08148C61.6193 8.92154 61.1686 8.79181 60.7107 8.69319C60.3272 8.58245 59.9361 8.50009 59.5405 8.44678C59.9076 8.60327 60.2864 8.73061 60.6734 8.8276C61.1232 8.95343 61.5661 9.10298 62.0001 9.27562C62.5808 9.47422 63.1505 9.70353 63.7069 9.9626L64.6833 10.4106C65.0261 10.5674 65.3541 10.7616 65.7118 10.9483C66.4571 11.3141 67.1429 11.792 67.9105 12.2699C71.1712 14.465 73.9403 17.3156 76.0421 20.6405C76.4967 21.3872 76.9588 22.134 77.2942 22.8807C77.4731 23.2391 77.6669 23.5751 77.816 23.9186C77.965 24.2621 78.0992 24.5906 78.2259 24.9117C78.4716 25.4767 78.6856 26.0551 78.8669 26.6441C79.0324 27.0802 79.1693 27.5267 79.2768 27.9807C79.3515 28.3691 79.4562 28.751 79.5898 29.1232Z" fill="#E0E0E0"/>
<path d="M233.184 232.802V241.996L214.623 241.903C214.756 240.039 224.945 236.321 224.945 236.321L224.741 232.802H233.184Z" fill="#455A64"/>
<g opacity="0.6">
<path d="M230.179 235.489C230.36 235.555 230.512 235.684 230.605 235.852C230.699 236.02 230.729 236.217 230.689 236.405C230.647 236.59 230.533 236.75 230.373 236.852C230.213 236.954 230.019 236.989 229.834 236.949C229.642 236.878 229.482 236.739 229.384 236.56C229.285 236.38 229.255 236.171 229.297 235.971C229.331 235.879 229.382 235.795 229.448 235.723C229.513 235.651 229.593 235.593 229.682 235.552C229.77 235.51 229.866 235.487 229.964 235.483C230.061 235.479 230.159 235.495 230.25 235.529" fill="white"/>
</g>
<path d="M233.184 241.995V240.526L215.457 240.734C215.457 240.734 214.535 241.292 214.619 241.902L233.184 241.995Z" fill="#263238"/>
<path d="M224.945 236.498C224.945 236.595 225.388 236.644 225.832 236.941C226.275 237.237 226.501 237.658 226.585 237.622C226.669 237.587 226.541 237.029 226.005 236.662C225.468 236.294 224.928 236.409 224.945 236.498Z" fill="#263238"/>
<path d="M222.521 237.348C222.499 237.441 222.889 237.609 223.186 238.016C223.483 238.423 223.571 238.853 223.66 238.848C223.749 238.844 223.815 238.308 223.434 237.808C223.053 237.308 222.521 237.259 222.521 237.348Z" fill="#263238"/>
<path d="M221.418 239.689C221.502 239.689 221.63 239.247 221.418 238.711C221.205 238.176 220.775 237.972 220.735 238.052C220.695 238.131 220.952 238.415 221.129 238.848C221.307 239.282 221.329 239.681 221.418 239.689Z" fill="#263238"/>
<path d="M225.123 233.882C225.162 233.971 225.566 233.847 226.084 233.882C226.603 233.918 226.971 234.104 227.037 234.02C227.104 233.935 226.709 233.576 226.106 233.55C225.504 233.523 225.083 233.807 225.123 233.882Z" fill="#263238"/>
<path d="M225.021 236.91C224.967 236.727 224.954 236.536 224.981 236.348C225.021 235.832 225.19 235.334 225.473 234.9C225.664 234.601 225.911 234.341 226.2 234.134C226.284 234.062 226.387 234.014 226.497 233.995C226.607 233.976 226.72 233.988 226.824 234.028C226.933 234.087 227.025 234.174 227.089 234.28C227.154 234.385 227.189 234.506 227.192 234.63C227.163 235.109 226.993 235.569 226.703 235.952C226.412 236.335 226.015 236.623 225.561 236.781C225.117 236.924 224.64 236.929 224.192 236.796C223.745 236.663 223.348 236.399 223.053 236.038C222.906 235.873 222.793 235.68 222.72 235.471C222.683 235.352 222.683 235.223 222.72 235.104C222.741 235.044 222.774 234.989 222.818 234.944C222.862 234.898 222.914 234.862 222.973 234.838C223.167 234.783 223.374 234.804 223.554 234.896C223.707 234.965 223.856 235.047 223.997 235.139C224.416 235.417 224.777 235.773 225.061 236.188C225.176 236.334 225.262 236.501 225.313 236.68C224.933 236.139 224.455 235.675 223.904 235.312C223.656 235.166 223.328 234.962 223.066 235.055C222.951 235.099 222.907 235.237 222.96 235.396C223.027 235.569 223.126 235.728 223.252 235.865C223.52 236.183 223.876 236.414 224.275 236.53C224.674 236.646 225.099 236.641 225.495 236.516C225.891 236.374 226.239 236.122 226.497 235.789C226.756 235.457 226.914 235.058 226.953 234.639C226.954 234.56 226.934 234.481 226.896 234.412C226.858 234.342 226.803 234.283 226.736 234.241C226.665 234.219 226.59 234.215 226.517 234.23C226.444 234.244 226.376 234.277 226.319 234.325C226.05 234.509 225.816 234.74 225.628 235.006C225.351 235.404 225.167 235.857 225.087 236.334C225.034 236.711 225.043 236.91 225.021 236.91Z" fill="#263238"/>
<path d="M239.965 234.13L239.65 236.498L239.863 241.832L246.821 242L247.069 236.498L246.276 233.227L239.965 234.13Z" fill="#455A64"/>
<path d="M243.302 241.429C243.347 241.429 243.245 239.8 243.081 237.786C242.917 235.772 242.744 234.134 242.704 234.134C242.664 234.134 242.762 235.763 242.926 237.777C243.09 239.791 243.262 241.429 243.302 241.429Z" fill="#263238"/>
<path d="M239.832 240.946L246.866 241.026V242L239.828 241.995L239.832 240.946Z" fill="#263238"/>
<path d="M246.848 237.875C246.804 237.773 246.744 237.678 246.67 237.596C246.485 237.356 246.277 237.133 246.05 236.932C245.712 236.629 245.333 236.376 244.924 236.179C244.211 235.831 243.405 235.721 242.625 235.865C241.844 236.009 241.131 236.4 240.59 236.981C240.382 237.205 240.21 237.461 240.08 237.737C240.024 237.834 239.986 237.941 239.969 238.052C240.183 237.708 240.426 237.384 240.696 237.082C241.391 236.396 242.329 236.013 243.307 236.016C244.286 236.042 245.225 236.406 245.966 237.047C246.533 237.521 246.817 237.901 246.848 237.875Z" fill="#263238"/>
<path d="M243.351 85.2486L243.422 109.275L233.1 109.766L232.803 103.923C232.803 103.923 229.138 104.649 228.189 101.268C227.587 99.0943 227.746 82.3094 227.746 82.3094L243.351 85.2486Z" fill="#FFBE9D"/>
<path d="M226.363 83.9825C227.99 84.4252 228.34 87.081 228.34 87.081L230.893 92.7069C232.191 91.6933 233.933 91.7508 234.266 94.0348C234.505 95.6815 232.453 96.0134 232.453 96.0134C233.645 98.0452 234.456 99.6873 236.193 101.617C238.077 103.706 239.132 103.915 241.17 103.95H243.422C243.422 103.95 244.521 100.378 246.564 91.4498C248.824 81.5569 237.093 82.814 234.93 80.3042C231.385 76.1744 221.236 82.5174 226.363 83.9825Z" fill="#64463F"/>
<path d="M223.496 81.8313C223.587 81.3034 223.863 80.825 224.274 80.4819C224.686 80.1388 225.207 79.9534 225.743 79.959C225.576 79.6765 225.514 79.3443 225.568 79.0207C225.621 78.697 225.787 78.4025 226.036 78.1884C226.296 77.9861 226.597 77.8418 226.918 77.7655C227.239 77.6891 227.573 77.6824 227.897 77.7458C228.543 77.8772 229.167 78.1008 229.749 78.4098C229.962 77.7618 230.381 77.2007 230.942 76.8118C231.545 76.4594 232.238 76.2888 232.936 76.3205C236.1 76.3205 237.771 78.485 239.473 80.6938C239.719 81.1055 240.073 81.4423 240.497 81.6676C240.807 81.7585 241.131 81.7945 241.454 81.7738C242.665 81.8126 243.844 82.1693 244.872 82.8081C245.901 83.4468 246.743 84.3451 247.313 85.4123C248.421 87.5502 249.25 92.4945 246.378 95.593L244.65 99.4528L228.105 86.3551C227.986 86.4127 226.949 86.9173 226.151 86.5012C224.17 85.4566 225.003 83.7214 225.003 83.7214C224.843 83.624 223.328 82.8848 223.496 81.8313Z" fill="#64463F"/>
<path d="M238.813 94.7078C238.675 95.3105 238.694 95.9386 238.87 96.5314C238.963 97.1434 239.216 97.7203 239.602 98.2046C239.668 98.1692 239.34 97.4344 239.127 96.4739C238.915 95.5134 238.888 94.7078 238.813 94.7078Z" fill="#455A64"/>
<path d="M237.563 93.5259C237.474 94.1165 237.507 94.7191 237.66 95.2964C237.726 95.8854 237.912 96.4547 238.206 96.9696C238.162 96.3896 238.066 95.8147 237.917 95.2522C237.854 94.6668 237.736 94.0888 237.563 93.5259Z" fill="#455A64"/>
<path d="M233.986 89.5642C233.964 89.5952 234.257 89.8077 234.629 90.2459C235.103 90.818 235.478 91.466 235.737 92.1625C235.994 92.867 236.202 93.5889 236.357 94.3226C236.403 94.6272 236.488 94.9247 236.61 95.2078C236.635 94.8918 236.611 94.5738 236.539 94.265C236.432 93.5101 236.246 92.7683 235.985 92.0518C235.715 91.3257 235.299 90.6628 234.762 90.1042C234.554 89.8609 234.287 89.6749 233.986 89.5642Z" fill="#455A64"/>
<path d="M232.542 86.8641C232.511 86.8641 232.409 87.0943 232.342 87.5104C232.266 88.0584 232.296 88.616 232.431 89.1526C232.565 89.6896 232.802 90.1959 233.127 90.6443C233.384 90.9807 233.57 91.1444 233.61 91.1223C233.65 91.1002 232.976 90.2946 232.688 89.0906C232.4 87.8866 232.621 86.8774 232.542 86.8641Z" fill="#455A64"/>
<path d="M244.862 92.8628C244.898 92.9293 245.212 92.8185 245.567 92.619C245.922 92.4196 246.183 92.2113 246.148 92.1492C246.112 92.0872 245.793 92.1936 245.438 92.393C245.084 92.5924 244.827 92.8007 244.862 92.8628Z" fill="#455A64"/>
<path d="M239.876 90.299C239.805 90.299 239.85 90.8169 240.169 91.3436C240.488 91.8703 240.918 92.1448 240.958 92.0917C240.998 92.0385 240.683 91.6933 240.395 91.2064C240.107 90.7195 239.947 90.2813 239.876 90.299Z" fill="#455A64"/>
<path d="M238.343 89.4756C238.349 89.9291 238.505 90.3679 238.786 90.7238C239.203 91.3524 239.721 91.6888 239.761 91.6091C239.801 91.5294 239.393 91.1665 239.003 90.56C238.805 90.1855 238.585 89.8234 238.343 89.4756Z" fill="#455A64"/>
<path d="M230.72 79.4101C230.72 79.4101 230.915 79.264 231.287 79.056C231.819 78.7716 232.412 78.6198 233.016 78.6133C233.907 78.5844 234.787 78.8135 235.551 79.2729C236.469 79.8742 237.214 80.7041 237.714 81.6808C238.093 82.3963 238.39 83.152 238.6 83.9338L238.64 84.0843L238.782 84.0091C239.493 83.6393 240.28 83.4379 241.082 83.4204C241.718 83.4062 242.353 83.5021 242.956 83.7037C243.493 83.902 244.006 84.1588 244.485 84.4694C244.387 84.3517 244.272 84.2488 244.144 84.164C243.795 83.9127 243.413 83.7088 243.01 83.5576C242.394 83.3239 241.74 83.2053 241.082 83.2079C240.24 83.2058 239.411 83.4046 238.662 83.7878L238.844 83.8674C238.639 83.0655 238.341 82.2901 237.957 81.5569C237.439 80.5404 236.657 79.6814 235.693 79.0692C234.891 78.5926 233.966 78.3632 233.033 78.4097C232.406 78.4366 231.795 78.6241 231.261 78.9542C231.117 79.0445 230.983 79.1498 230.862 79.2684C230.755 79.3614 230.716 79.4056 230.72 79.4101Z" fill="#455A64"/>
<path d="M225.291 80.7202C225.291 80.7202 225.003 80.6405 224.702 80.9858C224.613 81.0888 224.547 81.2085 224.506 81.3378C224.464 81.467 224.45 81.6032 224.462 81.7382C224.489 81.9176 224.557 82.0884 224.661 82.2373C224.765 82.3862 224.902 82.5093 225.061 82.597C225.441 82.8117 225.89 82.8734 226.315 82.7696C226.784 82.6497 227.225 82.4359 227.609 82.141C228.013 81.8211 228.437 81.5255 228.876 81.2558C229.353 80.9968 229.867 80.816 230.401 80.7202C231.437 80.5339 232.503 80.6069 233.503 80.9326C234.331 81.2087 235.111 81.6103 235.817 82.1233C236.455 82.608 237.067 83.125 237.652 83.6726C237.537 83.4868 237.4 83.3158 237.244 83.1635C236.838 82.7268 236.393 82.3283 235.914 81.9728C235.214 81.4366 234.434 81.0152 233.601 80.7246C232.56 80.3724 231.447 80.2901 230.366 80.4856C229.801 80.5843 229.257 80.7726 228.752 81.0433C228.307 81.3104 227.879 81.6061 227.472 81.9286C227.113 82.2087 226.704 82.4163 226.266 82.5394C225.894 82.6423 225.496 82.5995 225.154 82.4199C225.014 82.3498 224.892 82.2488 224.798 82.1245C224.703 82.0002 224.639 81.856 224.609 81.7028C224.579 81.469 224.641 81.2327 224.781 81.0433C224.908 80.8793 225.089 80.765 225.291 80.7202Z" fill="#455A64"/>
<path d="M177.205 99.1562C177.595 98.8109 182.851 101.011 182.851 101.011C182.851 101.011 186.773 104.087 188.387 105.88L189.384 106.716L204.297 118.314L222.645 110.7L226.634 120.925C226.634 120.925 206.034 129.114 202.897 127.711C199.475 126.192 186.782 112.913 186.756 112.86L184.921 111.09C184.921 111.09 183.95 111.09 183.214 111.028C182.479 110.966 180.325 109.558 180.325 109.558C180.121 109.164 179.98 108.739 179.908 108.301C179.863 108.127 179.878 107.943 179.95 107.778C180.023 107.614 180.148 107.478 180.307 107.394C180.229 107.054 180.216 106.703 180.267 106.358C180.351 105.774 181.154 105.096 181.154 105.096C180.904 104.842 180.733 104.521 180.662 104.171C180.48 103.494 181.353 102.843 181.353 102.843C181.353 102.843 178.304 100.772 177.564 100.409C176.824 100.046 176.815 99.5014 177.205 99.1562Z" fill="#FFBE9D"/>
<path d="M219.951 203.853C219.889 203.181 219.853 202.663 219.853 202.34L217.783 169.305C217.783 169.305 219.525 159.656 220.349 157.098L227.755 154.234L237.621 158.062C237.687 157.27 237.727 156.779 237.727 156.779L252.259 161.807C252.259 161.807 252.636 171.709 252.259 174.723C252.139 175.693 251.758 178.194 251.297 181.142C251.297 181.142 250.828 187.547 250.73 187.905C250.38 189.211 250.287 192.411 250.287 195.616C250.287 199.688 250.065 204.535 249.813 206.837C249.56 209.138 249.436 234.475 249.436 234.475H238.711L237.332 194.124C237.102 189.8 236.756 183.187 236.535 178.402L234.044 193.301C234.044 193.845 232.515 202.366 232.515 202.366C232.865 205.048 233.079 207.745 233.158 210.449C233.335 217.974 234.217 234.475 234.217 234.475H223.718C223.718 234.475 220.567 210.626 219.955 203.853H219.951Z" fill="#ABB9E8"/>
<path d="M218.142 167.327C218.486 167.197 218.811 167.023 219.108 166.809C219.855 166.334 220.55 165.784 221.183 165.167C221.819 164.553 222.393 163.878 222.898 163.153C223.122 162.862 223.306 162.542 223.443 162.201C223.197 162.47 222.971 162.755 222.765 163.055C222.232 163.746 221.652 164.398 221.027 165.007C220.399 165.611 219.728 166.169 219.02 166.676C218.711 166.871 218.418 167.088 218.142 167.327Z" fill="#455A64"/>
<path d="M236.863 173.329C236.946 173.23 237.015 173.12 237.067 173.002C237.231 172.691 237.379 172.372 237.51 172.045C238.409 169.89 238.815 167.561 238.698 165.229C238.682 164.878 238.648 164.527 238.596 164.18C238.588 164.05 238.561 163.921 238.516 163.799C238.48 163.799 238.516 164.352 238.516 165.233C238.529 166.383 238.437 167.531 238.241 168.664C238.045 169.796 237.749 170.908 237.355 171.988C237.062 172.816 236.827 173.311 236.863 173.329Z" fill="#455A64"/>
<path d="M235.303 185.767C235.366 185.58 235.411 185.387 235.44 185.192C235.515 184.749 235.613 184.245 235.728 183.612C235.963 182.226 236.269 180.402 236.615 178.384C237.208 174.679 237.612 172.156 237.798 170.983C237.558 171.677 237.388 172.393 237.293 173.121C237.036 174.449 236.712 176.304 236.38 178.344C236.047 180.385 235.759 182.244 235.569 183.585C235.48 184.222 235.409 184.754 235.351 185.179C235.313 185.372 235.297 185.57 235.303 185.767Z" fill="#455A64"/>
<path d="M260.609 130.667C260.609 130.667 262.027 140.622 262.293 144.11C262.452 146.213 260.316 149.002 258.685 149.205C257.054 149.409 251.559 149.736 251.559 149.736L251.116 143.491L251.257 142.251L252.964 141.928L252.45 132.026L260.609 130.667Z" fill="#FFBE9D"/>
<path d="M252.658 132.358C252.62 132.536 252.6 132.717 252.596 132.898C252.569 133.248 252.547 133.757 252.534 134.381C252.507 135.629 252.534 137.36 252.645 139.25C252.755 141.14 252.902 142.88 253.026 144.119C253.088 144.739 253.145 145.244 253.19 145.589C253.199 145.77 253.23 145.95 253.283 146.124C253.3 145.943 253.3 145.761 253.283 145.58C253.256 145.182 253.23 144.695 253.194 144.106C253.11 142.805 253.004 141.109 252.879 139.237C252.755 137.365 252.72 135.612 252.702 134.368C252.702 133.784 252.702 133.288 252.702 132.89C252.708 132.711 252.693 132.533 252.658 132.358Z" fill="#AA6550"/>
<g opacity="0.3">
<path d="M252.122 161.989C249.33 163.025 246.272 163.109 243.302 162.852C240.333 162.595 237.408 161.998 234.438 161.719C229.945 161.299 225.413 161.598 221.014 162.604C220.707 162.697 220.385 162.727 220.066 162.693C219.907 162.673 219.758 162.606 219.639 162.5C219.519 162.394 219.435 162.254 219.397 162.099C219.317 161.604 219.862 161.263 220.323 161.068C225.395 158.973 230.849 157.954 236.337 158.076C241.825 158.198 247.227 159.458 252.201 161.776" fill="black"/>
</g>
<path d="M209.372 115.215L225.114 107.389C227.596 107.098 230.096 106.989 232.595 107.062H243.01C243.01 107.062 255.636 110.78 257.719 114.21L263.13 130.411L252.436 132.027L251.107 143.663C251.107 143.663 252.436 157.142 252.436 159.103C252.466 160.008 252.41 160.913 252.268 161.807C252.268 161.807 230.866 158.558 225.597 160.271C220.327 161.984 218.9 161.807 218.9 161.807C218.9 161.807 219.343 156.212 219.733 152.954L220.957 136.714L221.843 124.32L211.938 127.348L209.372 115.215Z" fill="#FF725E"/>
<path d="M252.534 132.15C252.574 132.15 252.676 131.482 252.915 130.38C253.228 128.976 253.641 127.596 254.151 126.25C254.678 124.895 255.292 123.576 255.991 122.302L256.647 121.164C256.736 121.026 256.809 120.877 256.864 120.722C256.748 120.84 256.647 120.973 256.562 121.116C256.381 121.377 256.119 121.762 255.844 122.249C255.1 123.508 254.461 124.827 253.934 126.193C253.414 127.546 253.019 128.945 252.755 130.371C252.658 130.916 252.596 131.358 252.565 131.668C252.532 131.827 252.521 131.989 252.534 132.15Z" fill="#263238"/>
<path d="M232.347 136.749C232.354 136.824 232.372 136.897 232.4 136.966C232.457 137.126 232.524 137.325 232.604 137.564C232.683 137.803 232.803 138.139 232.949 138.502C233.096 138.865 233.251 139.281 233.455 139.724C233.84 140.609 234.341 141.68 234.97 142.822C235.6 143.964 236.344 145.177 237.186 146.408C238.028 147.638 238.959 148.749 239.797 149.732C240.634 150.715 241.472 151.542 242.19 152.215C242.54 152.56 242.877 152.848 243.169 153.1C243.462 153.353 243.714 153.574 243.932 153.747C244.149 153.919 244.291 154.034 244.428 154.136C244.482 154.188 244.543 154.231 244.61 154.265C244.61 154.265 244.561 154.203 244.455 154.105L243.989 153.663C243.785 153.481 243.546 153.255 243.253 152.985C242.961 152.715 242.642 152.423 242.301 152.074C241.6 151.392 240.803 150.542 239.956 149.568C239.11 148.594 238.232 147.47 237.372 146.253C236.513 145.036 235.777 143.818 235.156 142.712C234.536 141.605 234.009 140.543 233.605 139.653C233.392 139.21 233.229 138.799 233.069 138.445C232.909 138.091 232.79 137.781 232.688 137.524C232.586 137.267 232.515 137.081 232.448 136.94C232.422 136.872 232.388 136.808 232.347 136.749Z" fill="#263238"/>
<path d="M225.074 108.46C225.488 109.052 225.77 109.725 225.902 110.435C226.033 111.204 226.033 111.989 225.902 112.758C225.729 113.705 225.507 114.641 225.238 115.565C224.693 117.548 224.116 119.314 223.682 120.589C223.474 121.191 223.301 121.695 223.159 122.098C223.072 122.274 223.006 122.46 222.964 122.651C223.067 122.483 223.154 122.306 223.221 122.12C223.367 121.775 223.576 121.27 223.815 120.637C224.289 119.376 224.892 117.605 225.437 115.618C225.712 114.686 225.931 113.739 226.093 112.781C226.222 111.989 226.208 111.181 226.053 110.395C225.948 109.864 225.741 109.357 225.446 108.903C225.347 108.736 225.221 108.587 225.074 108.46Z" fill="#263238"/>
<path d="M254.776 125.515C255.008 125.768 255.294 125.963 255.614 126.086C256.37 126.437 257.212 126.557 258.036 126.432C258.86 126.307 259.628 125.942 260.245 125.383C260.514 125.17 260.731 124.899 260.879 124.59C260.848 124.564 260.618 124.878 260.139 125.259C259.525 125.76 258.787 126.087 258.002 126.206C257.218 126.325 256.416 126.232 255.681 125.936C255.109 125.714 254.799 125.484 254.776 125.515Z" fill="white"/>
<path d="M224.604 118.225C224.641 118.341 224.685 118.455 224.737 118.566C224.835 118.787 224.985 119.106 225.202 119.504C225.825 120.635 226.614 121.666 227.542 122.563C228.928 123.906 230.655 124.844 232.537 125.276C233.649 125.532 234.798 125.582 235.928 125.422C237.135 125.23 238.296 124.817 239.353 124.205C241.529 122.992 243.369 121.456 245.381 120.721C247.161 120.064 249.097 119.958 250.938 120.416C252.181 120.714 253.354 121.251 254.391 121.996C255.118 122.536 255.455 122.908 255.477 122.882C255.166 122.527 254.82 122.205 254.444 121.921C253.157 120.947 251.648 120.309 250.053 120.064C248.457 119.819 246.826 119.975 245.305 120.518C243.245 121.261 241.392 122.802 239.243 124.001C238.207 124.598 237.072 125.003 235.892 125.197C234.791 125.351 233.671 125.307 232.586 125.064C230.734 124.65 229.03 123.743 227.653 122.439C226.725 121.562 225.926 120.557 225.282 119.456C225.052 119.066 224.888 118.756 224.781 118.544C224.732 118.432 224.673 118.326 224.604 118.225Z" fill="white"/>
<path d="M214.752 112.533C214.661 112.692 214.593 112.864 214.548 113.042C214.402 113.521 214.316 114.016 214.291 114.516C214.206 116.194 214.737 117.845 215.784 119.159C216.395 119.83 217.055 120.453 217.761 121.023C218.314 121.489 218.766 122.063 219.091 122.709C219.308 123.145 219.408 123.63 219.383 124.117C219.357 124.462 219.286 124.648 219.308 124.652C219.33 124.657 219.334 124.612 219.37 124.524C219.421 124.397 219.457 124.265 219.476 124.13C219.533 123.622 219.452 123.108 219.241 122.643C218.928 121.965 218.475 121.362 217.912 120.872C217.224 120.298 216.575 119.679 215.971 119.017C214.962 117.741 214.429 116.155 214.464 114.529C214.494 113.856 214.591 113.187 214.752 112.533Z" fill="white"/>
<path d="M240.351 149.847C240.498 149.923 240.654 149.978 240.816 150.011C241.243 150.133 241.679 150.225 242.119 150.285C242.783 150.395 243.462 150.356 244.109 150.17C244.492 150.049 244.847 149.85 245.15 149.586C245.456 149.296 245.74 148.986 246.001 148.656C246.258 148.343 246.556 148.066 246.888 147.833C247.203 147.627 247.544 147.463 247.903 147.346C248.516 147.15 249.164 147.088 249.804 147.165C250.237 147.215 250.659 147.335 251.054 147.519C251.196 147.598 251.344 147.666 251.497 147.722C251.38 147.606 251.243 147.51 251.094 147.439C250.703 147.212 250.273 147.062 249.826 146.996C249.162 146.89 248.482 146.938 247.841 147.138C247.459 147.251 247.096 147.42 246.764 147.638C246.41 147.879 246.092 148.168 245.82 148.497C245.565 148.819 245.29 149.123 244.995 149.409C244.715 149.654 244.39 149.841 244.038 149.962C243.42 150.145 242.771 150.197 242.132 150.117C241.033 149.998 240.359 149.807 240.351 149.847Z" fill="white"/>
<path d="M219.973 148.904C220.014 148.949 220.06 148.989 220.11 149.024C220.253 149.129 220.401 149.226 220.553 149.316C221.104 149.652 221.701 149.904 222.326 150.064C223.265 150.305 224.242 150.362 225.202 150.232C226.387 150.072 227.512 149.615 228.473 148.904C229.385 148.168 230.258 147.385 231.088 146.558C231.765 145.899 232.548 145.358 233.406 144.96C233.984 144.694 234.613 144.555 235.249 144.553C235.693 144.553 235.945 144.628 235.95 144.602C235.895 144.575 235.837 144.555 235.777 144.544C235.606 144.498 235.431 144.47 235.254 144.46C234.599 144.431 233.946 144.55 233.344 144.81C232.456 145.195 231.643 145.733 230.942 146.399C230.135 147.116 229.328 147.988 228.336 148.718C227.404 149.402 226.316 149.843 225.171 150.002C224.237 150.137 223.286 150.1 222.366 149.891C221.749 149.746 221.153 149.521 220.593 149.223C220.393 149.104 220.186 148.998 219.973 148.904Z" fill="white"/>
</g>
<defs>
<clipPath id="clip0_48_1254">
<rect width="340" height="242" fill="white"/>
</clipPath>
</defs>
</svg>
